<?xml version="1.0" encoding="UTF-8"?>
<svg version="1.1" xmlns="http://www.w3.org/2000/svg" width="1024" height="1024">
<path d="M0 0 C19.8 0.495 19.8 0.495 40 1 C40 1.66 40 2.32 40 3 C40.99 3.33 41.98 3.66 43 4 C43 5.32 43 6.64 43 8 C43.8099911 10.48539848 43.8099911 10.48539848 44.9921875 13.15234375 C45.66652832 14.75082153 45.66652832 14.75082153 46.35449219 16.3815918 C47.10714355 18.14176636 47.10714355 18.14176636 47.875 19.9375 C48.96602194 22.52391798 50.04986506 25.11331722 51.1328125 27.703125 C51.42889404 28.41007004 51.72497559 29.11701508 52.0300293 29.84538269 C55.94923011 39.23080712 59.73508587 48.67026729 63.51715088 58.11160278 C64.33997861 60.16451702 65.16432328 62.21682389 65.99017334 64.26852417 C67.15838819 67.17112392 68.3220411 70.07550985 69.484375 72.98046875 C69.84006561 73.86252991 70.19575623 74.74459106 70.56222534 75.65338135 C71.04527634 76.86559357 71.04527634 76.86559357 71.53808594 78.10229492 C71.82165955 78.80980392 72.10523315 79.51731293 72.3973999 80.2462616 C73 82 73 82 73 84 C73.99 84 74.98 84 76 84 C76.10981201 85.00949707 76.21962402 86.01899414 76.33276367 87.05908203 C77.01097644 91.06483047 78.12822168 94.30484129 79.67578125 98.0546875 C79.9528038 98.73255814 80.22982635 99.41042877 80.51524353 100.10884094 C81.44023905 102.36735621 82.376373 104.62107837 83.3125 106.875 C83.97636539 108.48966999 84.63943025 110.1046693 85.30175781 111.7199707 C86.74596923 115.23975079 88.1943539 118.75777777 89.64501953 122.27490234 C92.13446759 128.31778926 94.59787214 134.37115081 97.05859375 140.42578125 C109.41653429 170.82541191 109.41653429 170.82541191 122.1940918 201.05029297 C123.35650542 203.86248175 124 205.92958146 124 209 C110.14 208.67 96.28 208.34 82 208 C79.43156214 201.93308478 76.86641447 195.86499305 74.30957031 189.79321289 C73.43844597 187.72729701 72.56540683 185.66218745 71.69042969 183.59790039 C70.43442794 180.63376474 69.18529922 177.66681504 67.9375 174.69921875 C67.54377197 173.7741301 67.15004395 172.84904144 66.74438477 171.8959198 C66.38401123 171.03525406 66.0236377 170.17458832 65.65234375 169.2878418 C65.33257568 168.53061325 65.01280762 167.7733847 64.68334961 166.99320984 C64 165 64 165 64 162 C34.63 162 5.26 162 -25 162 C-25.99 165.3 -26.98 168.6 -28 172 C-29.05267504 174.64773004 -30.12347551 177.23958773 -31.28515625 179.8359375 C-31.58691269 180.52257477 -31.88866913 181.20921204 -32.1995697 181.91665649 C-33.1484324 184.07189107 -34.10540394 186.22341124 -35.0625 188.375 C-35.70689503 189.83701278 -36.35077893 191.29925096 -36.99414062 192.76171875 C-38.64910862 196.51419481 -40.30758845 200.26422507 -42 204 C-42.43252075 205.18372192 -42.43252075 205.18372192 -42.8737793 206.39135742 C-44 208 -44 208 -46.28417969 208.62475586 C-54.63485052 209.06601129 -62.89726316 208.9276699 -71.25 208.5625 C-72.59242142 208.50909533 -73.93486953 208.45635733 -75.27734375 208.40429688 C-78.5185515 208.27604765 -81.75933341 208.14116298 -85 208 C-84.39883279 202.97245729 -82.78782085 198.65920831 -80.7890625 194.05078125 C-80.4652359 193.28923737 -80.1414093 192.52769348 -79.80776978 191.74307251 C-79.1132949 190.11152669 -78.41593151 188.48120789 -77.71594238 186.85202026 C-75.86790802 182.55012424 -74.04113422 178.23919469 -72.2109375 173.9296875 C-71.84597168 173.07203293 -71.48100586 172.21437836 -71.10498047 171.33073425 C-68.08510444 164.22667851 -65.14472695 157.09357713 -62.25 149.9375 C-58.6991839 141.17375581 -55.12019751 132.42283305 -51.5 123.6875 C-51.01088135 122.50631592 -50.5217627 121.32513184 -50.01782227 120.1081543 C-47.67618717 114.45409815 -45.33275138 108.800794 -42.98583984 103.14892578 C-40.7168079 97.68382498 -38.45128185 92.21727746 -36.1875 86.75 C-35.79570557 85.80419067 -35.40391113 84.85838135 -35.00024414 83.88391113 C-29.85873379 71.46268663 -24.78321089 59.01623028 -19.76953125 46.54296875 C-19.5078887 45.89240887 -19.24624615 45.24184898 -18.97667503 44.57157516 C-16.38430233 38.12577655 -13.79492676 31.67882079 -11.21850872 25.2266264 C-10.03409497 22.26316061 -8.84459776 19.30173375 -7.65625 16.33984375 C-7.22895096 15.2648613 -6.80165192 14.18987885 -6.36140442 13.08232117 C-5.76195259 11.59125603 -5.76195259 11.59125603 -5.15039062 10.07006836 C-4.80576782 9.20731796 -4.46114502 8.34456757 -4.1060791 7.45567322 C-3 5 -3 5 0 0 Z M19 50 C19.33 51.32 19.66 52.64 20 54 C20.33 53.01 20.66 52.02 21 51 C20.34 50.67 19.68 50.34 19 50 Z M18 53 C17.51756836 54.18102295 17.03513672 55.3620459 16.53808594 56.57885742 C14.68943925 61.10395741 12.83990917 65.62869596 10.99017334 70.15335083 C10.1655932 72.17072943 9.34125108 74.18820533 8.51715088 76.20578003 C4.41818898 86.2405515 0.31807571 96.2742885 -3.8671875 106.2734375 C-4.15166748 106.95443008 -4.43614746 107.63542267 -4.72924805 108.33705139 C-6.02821498 111.44585769 -7.33226404 114.55220622 -8.64550781 117.6550293 C-9.09506836 118.72922119 -9.54462891 119.80341309 -10.0078125 120.91015625 C-10.39598145 121.82933838 -10.78415039 122.74852051 -11.18408203 123.69555664 C-12.16688013 126.06389184 -12.16688013 126.06389184 -12 129 C-4.64934015 129.02531484 2.7013085 129.04285202 10.05200195 129.05493164 C12.55363383 129.05996641 15.05526276 129.06679461 17.55688477 129.07543945 C21.14860766 129.08754238 24.74029172 129.09323682 28.33203125 129.09765625 C29.45398392 129.10281754 30.57593658 129.10797882 31.73188782 129.11329651 C32.77274033 129.11337204 33.81359283 129.11344757 34.88598633 129.11352539 C36.2616552 129.11685631 36.2616552 129.11685631 37.66511536 129.12025452 C40.15668165 129.09611358 40.15668165 129.09611358 43 128 C43.99 128.33 44.98 128.66 46 129 C47.99961564 129.03920815 50.00049364 129.04443347 52 129 C51.34 126.69 50.68 124.38 50 122 C49.01 122.495 49.01 122.495 48 123 C46.875 119.25 46.875 119.25 48 117 C47.10115182 114.4207956 46.13470983 111.94818271 45.0703125 109.4375 C44.7605246 108.69040771 44.45073669 107.94331543 44.13156128 107.17358398 C43.13661914 104.77929641 42.13086771 102.38971528 41.125 100 C40.45373213 98.38831011 39.78315036 96.77633427 39.11328125 95.1640625 C36.2179895 88.00858376 36.2179895 88.00858376 33 81 C32.26470733 79.12710191 31.53983456 77.25010694 30.8203125 75.37109375 C30.38589844 74.25412109 29.95148438 73.13714844 29.50390625 71.98632812 C28.58433609 69.61967235 27.67287245 67.24985083 26.76953125 64.87695312 C26.33253906 63.76126953 25.89554688 62.64558594 25.4453125 61.49609375 C25.04844238 60.46669678 24.65157227 59.4372998 24.24267578 58.37670898 C23.17985394 55.67429528 23.17985394 55.67429528 20 55 C19.34 54.34 18.68 53.68 18 53 Z M48 120 C49 122 49 122 49 122 Z " fill="#060C11" transform="translate(732,380)"/>
<path d="M0 0 C0.33 0.66 0.66 1.32 1 2 C1.87398438 1.94670532 1.87398438 1.94670532 2.765625 1.89233398 C14.95443109 1.17485218 26.8308069 0.86676569 39 2 C39 1.34 39 0.68 39 0 C45.84491436 3.42245718 49.83560912 21.14109592 52.78674316 28.29824829 C54.27614285 31.91035578 55.76970749 35.52073628 57.26306152 39.13121033 C58.03222847 40.99087679 58.80118909 42.8506286 59.56994629 44.71046448 C63.44573408 54.08513641 67.34549753 63.44975867 71.25 72.8125 C71.86312709 74.28311816 72.47624582 75.7537398 73.08935547 77.22436523 C74.21108689 79.91478703 75.33300496 82.60513088 76.45507812 85.29541016 C78.63812366 90.52968797 80.81913798 95.76481211 83 101 C83.40089844 100.02281006 83.80179687 99.04562012 84.21484375 98.03881836 C84.484142 97.3824086 84.75344025 96.72599884 85.03089905 96.04969788 C85.64796763 94.54558347 86.26502235 93.04146338 86.88206482 91.53733826 C88.64509778 87.23976791 90.40839174 82.94230493 92.17211914 78.64501953 C95.88943997 69.58706557 99.60340937 60.52776957 103.30859375 51.46484375 C106.91166826 42.65270466 110.53007529 33.84696658 114.1583252 25.04516602 C114.94887622 23.12422449 115.73630823 21.20204184 116.52246094 19.27929688 C117.7749435 16.22320387 119.04062918 13.17306231 120.3125 10.125 C120.65531006 9.28114746 120.99812012 8.43729492 121.35131836 7.56787109 C122.1511085 5.67461627 123.06368217 3.82958657 124 2 C127.5408214 0.8197262 130.62355373 0.9761614 134.29296875 1.12109375 C134.99899734 1.14470474 135.70502594 1.16831573 136.43244934 1.19264221 C138.68434507 1.26912945 140.93588387 1.35321747 143.1875 1.4375 C144.71547741 1.49073568 146.24347216 1.54347599 147.77148438 1.59570312 C151.51454835 1.72472424 155.25731019 1.86056212 159 2 C159.33 1.34 159.66 0.68 160 0 C160.99 0.66 161.98 1.32 163 2 C163.36914349 4.83857918 163.36914349 4.83857918 163.36076355 8.54251099 C163.36332682 9.22208953 163.3658901 9.90166807 163.36853105 10.6018399 C163.37349136 12.88990836 163.35693989 15.17732389 163.34057617 17.46533203 C163.33973038 19.10107406 163.3402041 20.73681723 163.34190369 22.37255859 C163.34276694 26.82281051 163.32508793 31.27282147 163.30418181 35.72301722 C163.2854699 40.37017258 163.28366891 45.01733304 163.28010559 49.66452026 C163.27076895 58.4689166 163.24613334 67.27320162 163.21605712 76.07754886 C163.18256339 86.09915431 163.16603977 96.12076497 163.15097082 106.14241242 C163.11958515 126.76167216 163.06619133 147.38082517 163 168 C153.43 168 143.86 168 134 168 C133.67 129.06 133.34 90.12 133 50 C129.04 59.24 125.08 68.48 121 78 C114.84393991 92.09067061 114.84393991 92.09067061 112.89501953 96.49438477 C112.06567271 98.37042285 111.24316501 100.24933002 110.421875 102.12890625 C109.95362305 103.19181885 109.48537109 104.25473145 109.00292969 105.34985352 C107.82302747 107.99537069 107.82302747 107.99537069 108 111 C107.34 111 106.68 111 106 111 C105.83201904 111.53294678 105.66403809 112.06589355 105.4909668 112.61499023 C103.56540752 118.57216911 101.27988634 124.31121429 98.8125 130.0625 C98.44447266 130.92810547 98.07644531 131.79371094 97.69726562 132.68554688 C96.80127408 134.79170883 95.90215345 136.89647192 95 139 C78.29157175 140.33257403 78.29157175 140.33257403 70 139 C69.67 138.01 69.34 137.02 69 136 C68.34 135.67 67.68 135.34 67 135 C66.29244745 133.01409622 65.63461897 131.01039877 65 129 C63.70951078 125.93759554 62.3841184 122.8961084 61.03515625 119.859375 C59 115.20758929 59 115.20758929 59 113 C58.01 112.67 57.02 112.34 56 112 C56 111.01 56 110.02 56 109 C55.01666768 106.51968751 53.98620872 104.10398194 52.88671875 101.67578125 C52.39817665 100.57961487 52.39817665 100.57961487 51.89976501 99.46130371 C50.83469102 97.07577984 49.76145781 94.69403612 48.6875 92.3125 C47.95527305 90.68006319 47.22334055 89.04749428 46.49169922 87.41479492 C44.67224992 83.35909653 42.84522076 79.3068587 41.01641846 75.25537109 C39.7922265 72.53896317 38.57521327 69.81938471 37.35890198 67.09944153 C36.1204981 64.33431273 34.87262351 61.57347854 33.625 58.8125 C33.17987061 57.81710205 32.73474121 56.8217041 32.27612305 55.79614258 C31.86789307 54.90048584 31.45966309 54.0048291 31.0390625 53.08203125 C30.69053223 52.31093018 30.34200195 51.5398291 29.98291016 50.74536133 C29.11573281 48.82457605 29.11573281 48.82457605 27 48 C27.02996567 48.63072922 27.05993134 49.26145844 27.09080505 49.91130066 C28.16945949 73.66460389 28.12048016 97.4027876 28.06866455 121.17541504 C28.05825438 126.47305899 28.05382987 131.77070805 28.04882812 137.06835938 C28.03824822 147.37892139 28.02072888 157.68945339 28 168 C18.43 168 8.86 168 -1 168 C-1.02312313 146.39083139 -1.04098136 124.78166574 -1.05181217 103.17248726 C-1.05697418 93.13956405 -1.06401509 83.10664866 -1.07543945 73.07373047 C-1.08538917 64.33170278 -1.09185412 55.58968074 -1.09408849 46.84764755 C-1.09539511 42.21641901 -1.09847788 37.58520667 -1.10573006 32.95398331 C-1.1124948 28.59893447 -1.11461603 24.24390857 -1.11310768 19.88885498 C-1.1133838 18.28681183 -1.11538624 16.68476796 -1.11920547 15.08272934 C-1.1241498 12.90262796 -1.12299553 10.72261421 -1.12025452 8.54251099 C-1.12117631 7.32021349 -1.1220981 6.09791599 -1.12304783 4.83857918 C-1 2 -1 2 0 0 Z " fill="#060C11" transform="translate(105,416)"/>
<path d="M0 0 C12.54 0 25.08 0 38 0 C41 9 41 9 41.5625 12 C41.7790625 12.99 41.7790625 12.99 42 14 C42.99 14.495 42.99 14.495 44 15 C44.72261047 16.94252014 44.72261047 16.94252014 45.39575195 19.45336914 C46.87689613 24.67787492 48.69662087 29.68938591 50.66796875 34.74609375 C51.19581718 36.11476089 51.19581718 36.11476089 51.73432922 37.51107788 C52.48969962 39.46935235 53.24659202 41.42704031 54.00488281 43.38418579 C56.03683149 48.63032786 58.05604762 53.88135755 60.07421875 59.1328125 C60.4864267 60.2051564 60.89863464 61.27750031 61.32333374 62.38233948 C65.45996457 73.16363835 69.49056041 83.98338064 73.5 94.8125 C77.76870438 106.33845464 82.05914527 117.8514974 86.5 129.3125 C89.60376502 137.33174164 92.65896865 145.36616736 95.625 153.4375 C95.96853516 154.36280518 96.31207031 155.28811035 96.66601562 156.24145508 C96.97474609 157.08861084 97.28347656 157.9357666 97.6015625 158.80859375 C98.00882568 159.91932251 98.00882568 159.91932251 98.42431641 161.05249023 C99 163 99 163 99 166 C88.77 166 78.54 166 68 166 C64.59756327 157.83415185 61.29622012 149.7084542 58.1875 141.4375 C57.78080078 140.37208984 57.37410156 139.30667969 56.95507812 138.20898438 C56.57158203 137.18998047 56.18808594 136.17097656 55.79296875 135.12109375 C55.4477417 134.2077124 55.10251465 133.29433105 54.74682617 132.35327148 C54 130 54 130 54 127 C19.845 126.505 19.845 126.505 -15 126 C-15.33 127.98 -15.66 129.96 -16 132 C-16.85001017 134.61873045 -17.73400693 137.18975452 -18.6875 139.76953125 C-18.95006592 140.49113937 -19.21263184 141.2127475 -19.4831543 141.95622253 C-20.03543866 143.47066544 -20.59025001 144.98418897 -21.14746094 146.49682617 C-22.00295702 148.82053188 -22.84972433 151.14728225 -23.6953125 153.47460938 C-24.23386711 154.9481024 -24.77291215 156.42141628 -25.3125 157.89453125 C-25.56668701 158.59238235 -25.82087402 159.29023346 -26.08276367 160.00923157 C-27.88406303 164.88406303 -27.88406303 164.88406303 -29 166 C-31.44830426 166.08843793 -33.86820599 166.11528752 -36.31640625 166.09765625 C-37.04746078 166.0962413 -37.77851532 166.09482635 -38.53172302 166.09336853 C-40.87535632 166.08775408 -43.21889539 166.07519922 -45.5625 166.0625 C-47.14778508 166.05748686 -48.73307166 166.05292363 -50.31835938 166.04882812 C-54.2122761 166.03777997 -58.10612205 166.02050572 -62 166 C-57.05765622 151.6625035 -51.85144129 137.43935153 -46.5 123.25 C-45.70573862 121.13876015 -44.91171624 119.02743038 -44.11791992 116.91601562 C-42.51238622 112.64610991 -40.90580051 108.37660252 -39.29833984 104.10742188 C-36.26622248 96.05275264 -33.24529676 87.99389729 -30.22509766 79.93475342 C-29.31450573 77.50535117 -28.40343471 75.07612918 -27.4921875 72.64697266 C-24.65752061 65.09030466 -21.82456926 57.53300377 -18.99662781 49.97381592 C-17.65437152 46.3862155 -16.31126959 42.79893191 -14.96810913 39.21166992 C-14.3379907 37.52807007 -13.70827013 35.84432124 -13.07901001 34.16040039 C-8.81011016 22.73703942 -4.43917917 11.35840997 0 0 Z M17 37 C15.8615885 39.74763462 14.83122691 42.47408872 13.84765625 45.27734375 C13.54685654 46.11785782 13.24605682 46.95837189 12.93614197 47.82435608 C12.29818452 49.61126728 11.66372976 51.3994322 11.0324707 53.1887207 C10.07664427 55.89741687 9.1106574 58.60230265 8.14257812 61.30664062 C7.52282743 63.04665783 6.9036689 64.78688608 6.28515625 66.52734375 C6.0006813 67.32567123 5.71620636 68.12399872 5.42311096 68.94651794 C3.6907112 73.8651279 2.13115987 78.80909459 0.69334412 83.82203674 C-0.22986775 86.72207076 -1.56707716 89.32105731 -3 92 C-4.93269283 95.8790894 -4.93269283 95.8790894 -4 100 C10.85 100 25.7 100 41 100 C42.08231361 94.58843196 41.65785537 93.17046713 39.7265625 88.203125 C39.48336273 87.56888611 39.24016296 86.93464722 38.98959351 86.28118896 C38.2131624 84.26600199 37.41907581 82.25828992 36.625 80.25 C36.09785533 78.88453989 35.57180153 77.51865812 35.046875 76.15234375 C33.19322144 70.14347111 33.19322144 70.14347111 30 65 C29.59705532 63.71677618 29.22965285 62.42240092 28.875 61.125 C26.392851 52.59339237 23.12000558 44.3140403 20 36 C18.7763932 35.9254644 18.7763932 35.9254644 17 37 Z " fill="#060C10" transform="translate(470,418)"/>
<path d="M0 0 C10.23 0 20.46 0 31 0 C33.93203057 7.03687336 36.84720196 14.05274775 39.6015625 21.15625 C39.92027313 21.97447235 40.23898376 22.7926947 40.56735229 23.63571167 C41.58795683 26.25660328 42.6066125 28.87824622 43.625 31.5 C45.04359729 35.14869976 46.46295973 38.79710113 47.8828125 42.4453125 C48.23293396 43.34520905 48.58305542 44.24510559 48.94378662 45.17227173 C51.10637114 50.72455503 53.2890902 56.26836393 55.4921875 61.8046875 C56.01092723 63.11131928 56.5296455 64.41795958 57.04833984 65.72460938 C57.99502526 68.10517453 58.94568514 70.48416414 59.90087891 72.86132812 C60.31515137 73.90482422 60.72942383 74.94832031 61.15625 76.0234375 C61.51525391 76.91981934 61.87425781 77.81620117 62.24414062 78.73974609 C63 81 63 81 63 84 C63.66 84 64.32 84 65 84 C65.1863501 82.93712769 65.1863501 82.93712769 65.37646484 81.8527832 C66.02317008 78.89399279 66.92835479 76.19641648 67.9765625 73.35546875 C68.39284912 72.22262451 68.80913574 71.08978027 69.23803711 69.92260742 C69.69573486 68.69002197 70.15343262 67.45743652 70.625 66.1875 C71.1063735 64.88458514 71.58757015 63.58160493 72.06860352 62.27856445 C73.40887958 58.65314244 74.75549615 55.03010482 76.10394287 51.40771484 C77.04505167 48.87894569 77.98473298 46.34964879 78.92431641 43.8203125 C80.59383647 39.32805623 82.26757325 34.8373894 83.9442749 30.34780884 C84.6016681 28.58701068 85.25829577 26.8259265 85.91412354 25.06454468 C86.84482499 22.56668485 87.77932741 20.07027865 88.71484375 17.57421875 C88.98742508 16.84086304 89.26000641 16.10750732 89.54084778 15.35192871 C91.50859062 10.11937793 93.71931834 5.13153373 96 0 C106.23 0 116.46 0 127 0 C125.16418957 6.11936808 123.40993658 11.81603235 120.91796875 17.62109375 C120.62737076 18.31071198 120.33677277 19.0003302 120.03736877 19.71084595 C119.41487806 21.1875083 118.79027287 22.66328084 118.16369629 24.13821411 C116.47059451 28.1260648 114.79575863 32.12156656 113.12109375 36.1171875 C112.77708527 36.93741898 112.43307678 37.75765045 112.0786438 38.60273743 C108.54361519 47.05269116 105.1353601 55.55170212 101.75 64.0625 C101.16370344 65.53501254 100.57735923 67.00750611 99.9909668 68.47998047 C99.56130867 69.55891068 99.56130867 69.55891068 99.12297058 70.65963745 C98.84004654 71.37008209 98.5571225 72.08052673 98.265625 72.8125 C97.986689 73.51319611 97.70775299 74.21389221 97.42036438 74.93582153 C93.95043922 83.64574842 90.41704192 92.32948487 86.859375 101.00390625 C85.01183963 105.50908051 83.18559301 110.02212378 81.375 114.54222107 C80.14374686 117.61091817 78.90341048 120.67590266 77.66186523 123.740448 C77.06440342 125.22092558 76.470674 126.70291615 75.88110352 128.18655396 C68.99654977 145.49779705 60.29921391 161.10000526 42.8671875 169.51171875 C35.10430939 172.8400289 28.24464639 174.1991886 19.875 174.75 C19.06417969 174.81832031 18.25335938 174.88664063 17.41796875 174.95703125 C16.63808594 175.00730469 15.85820312 175.05757812 15.0546875 175.109375 C13.99483643 175.18623535 13.99483643 175.18623535 12.91357422 175.26464844 C11 175 11 175 9.2512207 173.83959961 C7.49877724 171.2630803 7.74601229 169.54578882 7.92578125 166.45703125 C8.00795898 164.84731445 8.00795898 164.84731445 8.09179688 163.20507812 C8.16462891 162.08552734 8.23746094 160.96597656 8.3125 159.8125 C8.37373047 158.68134766 8.43496094 157.55019531 8.49804688 156.38476562 C8.65141499 153.58874697 8.81927954 150.79436237 9 148 C12.66666667 148 16.33333333 148 20 148 C22.06616782 147.69021312 24.12848754 147.3542387 26.1875 147 C27.27417969 146.814375 28.36085938 146.62875 29.48046875 146.4375 C30.72763672 146.2209375 30.72763672 146.2209375 32 146 C32 145.34 32 144.68 32 144 C33.051875 143.4121875 33.051875 143.4121875 34.125 142.8125 C41.15267203 138.38201111 45.80301284 130.95724702 48 123 C47.82438106 116.31811762 44.95379321 110.49529738 42.375 104.4375 C41.87516602 103.24398926 41.37533203 102.05047852 40.86035156 100.82080078 C37.49962365 92.81066725 34.07282318 84.82853332 30.65310669 76.84346008 C28.8132473 72.54677057 26.97552624 68.24916753 25.13799095 63.95148373 C23.81152442 60.85059596 22.48217138 57.75099574 21.14715576 54.65377808 C19.63006719 51.13307578 18.11926984 47.60972958 16.609375 44.0859375 C16.14429535 43.0121434 15.6792157 41.9383493 15.20004272 40.83201599 C14.77792511 39.84379349 14.3558075 38.85557098 13.92089844 37.83740234 C13.36230133 36.53964371 13.36230133 36.53964371 12.79241943 35.21566772 C12 33 12 33 12 30 C11.01 30.33 10.02 30.66 9 31 C9.33 30.01 9.66 29.02 10 28 C9.09285882 25.18214707 9.09285882 25.18214707 7.65625 22.08984375 C7.15222656 20.93548828 6.64820313 19.78113281 6.12890625 18.59179688 C5.58687109 17.37328219 5.04389074 16.15518756 4.5 14.9375 C3.43873718 12.55455146 2.38858546 10.16763867 1.34375 7.77734375 C0.87130859 6.71765381 0.39886719 5.65796387 -0.08789062 4.56616211 C-0.38888672 3.71932861 -0.68988281 2.87249512 -1 2 C-0.67 1.34 -0.34 0.68 0 0 Z " fill="#070D11" transform="translate(288,464)"/>
<path d="M0 0 C4.93847734 3.81475196 8.27819173 7.92302962 10 14 C11.08533431 23.04897478 9.05575228 28.64786796 3.9375 35.9375 C1.09807781 38.96011072 -2.05104637 39.25290067 -6 40 C-5.75443359 40.79845337 -5.75443359 40.79845337 -5.50390625 41.61303711 C-4.88825582 44.52932308 -4.9058032 47.21036608 -4.9375 50.19140625 C-4.94523438 51.38314453 -4.95296875 52.57488281 -4.9609375 53.80273438 C-4.98027344 55.66381836 -4.98027344 55.66381836 -5 57.5625 C-5.0254748 60.02209172 -5.04651946 62.48173452 -5.0625 64.94140625 C-5.07410156 66.03138916 -5.08570313 67.12137207 -5.09765625 68.24438477 C-5.12665857 71.09074108 -5.12665857 71.09074108 -4 74 C-4.66 74 -5.32 74 -6 74 C-5.505 74.99 -5.505 74.99 -5 76 C10.86383067 76.72106944 10.86383067 76.72106944 24.73828125 70.1640625 C40.78380721 57.00586074 40.78380721 57.00586074 50.08984375 40.3984375 C50.03957031 39.40070313 49.98929688 38.40296875 49.9375 37.375 C49.83504051 30.30529529 50.92288973 24.41413769 55.25 18.6875 C60.27064406 13.78096148 65.31823674 11.27786893 72.3125 10.75 C79.63844871 11.24667449 85.08669121 14.74301417 90 20 C93.47343549 25.78905914 94.834395 31.24140048 94 38 C92.13617576 44.63566342 88.88621851 49.37325513 83 53 C75.70349462 56.58263663 70.17397686 56.24487029 62.4375 53.9375 C59.1115506 53.64218759 59.1115506 53.64218759 57.46484375 55.26171875 C56.32863242 56.59334726 55.22942575 57.95691046 54.15625 59.33984375 C51.44174972 62.68871095 48.44273438 65.66446223 45.375 68.6875 C44.82440918 69.2335791 44.27381836 69.7796582 43.70654297 70.34228516 C42.64137587 71.39846621 41.57516246 72.4535933 40.5078125 73.50756836 C39.09040419 74.910518 37.68161611 76.32216149 36.2734375 77.734375 C26.15539735 87.81764525 16.57298464 90.17972798 2.5625 90.25 C1.53833984 90.270625 0.51417969 90.29125 -0.54101562 90.3125 C-10.42791969 90.36369433 -10.42791969 90.36369433 -15 87 C-19.42417968 81.80970029 -19.48992586 77.92211475 -19.171875 71.4453125 C-19.14401917 70.54376434 -19.11616333 69.64221619 -19.08746338 68.71334839 C-18.99450514 65.8494958 -18.8726879 62.98771765 -18.75 60.125 C-18.68168277 58.17714942 -18.61525577 56.22923156 -18.55078125 54.28125 C-18.38906671 49.51977604 -18.20147269 44.7599507 -18 40 C-19.14275391 39.56880859 -19.14275391 39.56880859 -20.30859375 39.12890625 C-25.66374053 36.88269809 -28.83797973 33.88679368 -31.375 28.75 C-33.60780355 23.05022722 -34.1178391 18.26448588 -32.1171875 12.421875 C-28.97440902 5.47029876 -24.9632256 0.8164784 -18 -2.375 C-11.43206708 -3.74331936 -5.85971398 -3.25795492 0 0 Z M-16.3125 11.3125 C-16.869375 11.869375 -17.42625 12.42625 -18 13 C-18.66 13.66 -19.32 14.32 -20 15 C-20.4484687 19.55943179 -20.60016051 21.91509446 -18.375 25.9375 C-15.46608332 28.46366448 -13.83284932 28.92177859 -10 29 C-6.15375534 27.95102418 -5.26308359 27.39462539 -3 24 C-2.330441 19.77243559 -2.268091 16.1710544 -4.5625 12.5 C-8.46154082 10.10059026 -12.17382706 8.96352347 -16.3125 11.3125 Z M64 28 C62.43064406 31.13871188 62.64798897 33.53855822 63 37 C65.42853382 40.2856634 67.12274814 41.70758271 71 43 C74.62603173 43 76.16064111 42.20839025 79 40 C81.4915904 36.2626144 81.45793285 34.42668417 81 30 C79.20437595 27.24670979 77.94745078 25.47372539 75 24 C69.88480995 23.43164555 67.67158417 24.43331824 64 28 Z " fill="#0A0F13" transform="translate(831,353)"/>
<path d="M0 0 C9.57 0 19.14 0 29 0 C30.21955116 2.43910232 30.12314886 3.99377126 30.12025452 6.72024536 C30.12162918 7.71586487 30.12300385 8.71148437 30.12442017 9.73727417 C30.11902725 11.38156906 30.11902725 11.38156906 30.11352539 13.05908203 C30.11367142 14.21029541 30.11381744 15.36150879 30.1139679 16.54760742 C30.11326904 20.36769469 30.1054779 24.18773371 30.09765625 28.0078125 C30.09579197 30.65054294 30.09436812 33.29327373 30.09336853 35.93600464 C30.09025748 42.19040623 30.08204714 48.44479039 30.07201904 54.6991843 C30.06085088 61.81880259 30.05534568 68.93842171 30.05032361 76.05804658 C30.03986435 90.70537466 30.02152167 105.35268387 30 120 C19.44 120 8.88 120 -2 120 C-2.1772363 53.51669624 -2.1772363 53.51669624 -1.5625 24 C-1.54285187 22.98953613 -1.52320374 21.97907227 -1.50296021 20.93798828 C-1.44665607 18.12515526 -1.38327436 15.3125996 -1.31640625 12.5 C-1.29968872 11.686521 -1.28297119 10.87304199 -1.26574707 10.03491211 C-1.17051277 6.48296126 -0.86733746 3.46934982 0 0 Z " fill="#070E12" transform="translate(588,464)"/>
<path d="M0 0 C1.17755859 -0.03867187 1.17755859 -0.03867187 2.37890625 -0.078125 C3.05824219 0.03015625 3.73757813 0.1384375 4.4375 0.25 C7.46085595 4.78503393 6.66960149 9.05416884 6.5 14.375 C6.50193359 15.38304687 6.50386719 16.39109375 6.50585938 17.4296875 C6.25299303 25.39755778 3.85825504 29.54100345 -1.5625 35.25 C-2.08577881 35.83942383 -2.60905762 36.42884766 -3.14819336 37.03613281 C-4.59301093 38.65555142 -6.07003176 40.23700703 -7.5625 41.8125 C-8.61536775 42.93806885 -9.66745626 44.06436712 -10.71875 45.19140625 C-11.21375 45.72137207 -11.70875 46.25133789 -12.21875 46.79736328 C-13.87086987 48.58335769 -15.47344212 50.40778339 -17.0625 52.25 C-20.20203039 55.8766989 -23.43665153 59.41082196 -26.6875 62.9375 C-27.19087891 63.48470703 -27.69425781 64.03191406 -28.21289062 64.59570312 C-37.14341272 74.25572768 -37.14341272 74.25572768 -41.6875 77 C-42.35007812 77.40734375 -43.01265625 77.8146875 -43.6953125 78.234375 C-45.5625 79.25 -45.5625 79.25 -48.5625 80.25 C-49.7769579 82.37567484 -49.7769579 82.37567484 -50.8125 84.9375 C-53.78087064 91.20605311 -58.05223372 95.64355587 -64.5625 98.25 C-71.57501646 99.13120247 -78.01671602 99.20370634 -83.84375 94.8828125 C-89.32189289 89.67857675 -92.66949225 84.73118394 -92.875 77.0625 C-92.80068061 70.03002787 -90.66219349 65.73647914 -86.1875 60.4375 C-80.81560805 55.96092338 -75.51853285 54.08381491 -68.5625 54.25 C-61.93032527 55.44429966 -56.3408509 59.65968606 -51.5625 64.25 C-51.5625 64.91 -51.5625 65.57 -51.5625 66.25 C-45.22002623 62.82341677 -41.11416546 58.76804879 -36.5625 53.25 C-35.1120747 51.61793764 -33.65332247 49.99324769 -32.1875 48.375 C-31.42695312 47.53066406 -30.66640625 46.68632813 -29.8828125 45.81640625 C-28.36084913 44.13302252 -26.83493374 42.45320165 -25.3046875 40.77734375 C-23.80235065 39.12582014 -22.31540067 37.46017541 -20.84375 35.78125 C-18.5625 33.25 -18.5625 33.25 -16.03125 30.84375 C-8.85202805 23.4827756 -8.49875317 17.0408196 -8.5625 7.21484375 C-8.5625 3.25 -8.5625 3.25 -7.5625 1.25 C-4.78580178 0.32443393 -2.88553105 0.05704509 0 0 Z M-78.5625 70.25 C-80.11241142 73.88892246 -80.84279855 76.12880579 -79.875 80 C-78.57659014 82.22584547 -77.54901016 83.62508962 -75.5625 85.25 C-71.35178342 86.11075422 -67.68349615 85.97864749 -64.0625 83.625 C-62.18993632 80.66010751 -61.63282144 78.76607206 -61.5625 75.25 C-62.88679273 71.93194858 -62.88679273 71.93194858 -64.5625 69.25 C-65.2225 69.25 -65.8825 69.25 -66.5625 69.25 C-67.2225 68.59 -67.8825 67.93 -68.5625 67.25 C-72.76193004 66.68250945 -75.32380926 67.53650235 -78.5625 70.25 Z " fill="#0A1013" transform="translate(723.5625,567.75)"/>
<path d="M0 0 C0.99 0.33 1.98 0.66 3 1 C4.37433431 1.04278083 5.75059873 1.04057273 7.125 1 C8.40375 1 9.6825 1 11 1 C11.33 1.33 11.66 1.66 12 2 C11.9868065 4.46584663 11.91832854 6.91196947 11.82421875 9.375 C10.54967504 30.00706839 10.54967504 30.00706839 19.25 47.75 C21.12498155 49.6220538 23.03821997 51.41127531 25.02636719 53.16259766 C28.52922393 56.42366889 31.40575811 60.19642156 34.375 63.9375 C34.93993164 64.61973633 35.50486328 65.30197266 36.08691406 66.00488281 C40 70.75980838 40 70.75980838 40 73 C40.680625 73.226875 41.36125 73.45375 42.0625 73.6875 C49.0611241 76.81454481 52.93050454 80.28559425 56.12109375 87.3828125 C58.13841852 93.38995737 57.62230074 99.25165995 55.18359375 105.07421875 C52.8953242 108.7973768 49.62207668 111.60150393 46 114 C44.91525391 114.24943359 44.91525391 114.24943359 43.80859375 114.50390625 C43.21175781 114.66761719 42.61492188 114.83132813 42 115 C41.505 116.485 41.505 116.485 41 118 C41 117.34 41 116.68 41 116 C40.24976563 116.06960938 39.49953125 116.13921875 38.7265625 116.2109375 C30.6471846 116.63831013 25.14163064 115.44550432 19 110 C14.72390127 104.93238864 13.26179137 99.93081535 13.6484375 93.34765625 C14.82442733 85.49465749 19.60677416 80.39322584 25 75 C24.63350342 74.55833496 24.26700684 74.11666992 23.8894043 73.66162109 C19.57442163 68.45618108 15.28177048 63.2327824 11 58 C10.43555176 57.31276855 9.87110352 56.62553711 9.28955078 55.91748047 C7.76664705 54.05677408 6.25634758 52.18661979 4.75 50.3125 C4.29713623 49.76190918 3.84427246 49.21131836 3.37768555 48.64404297 C-1.21382511 42.87615104 -2.13652718 38.23594028 -2 31 C-2.33 30.01 -2.66 29.02 -3 28 C-2.505 26.515 -2.505 26.515 -2 25 C-1.94084945 23.24967338 -1.93901503 21.49709641 -1.97265625 19.74609375 C-1.98490234 18.72708984 -1.99714844 17.70808594 -2.00976562 16.65820312 C-2.04498692 14.50709513 -2.08406372 12.35604689 -2.12695312 10.20507812 C-2.13791016 9.18736328 -2.14886719 8.16964844 -2.16015625 7.12109375 C-2.18541382 5.72008423 -2.18541382 5.72008423 -2.21118164 4.29077148 C-2 2 -2 2 0 0 Z M28.4375 87.4375 C26.29019893 91.26529756 26.23601606 94.71538902 27 99 C29.12541462 102.40066339 30.5692305 102.88251741 34.4375 103.9375 C38.48253989 104.00846561 39.98603205 103.66951447 43 101 C44.80154897 97.47523027 45.15029556 95.69682487 44.3125 91.8125 C43.05537085 89.11865181 42.28302675 87.82010888 40 86 C35.83986986 85.14958666 32.14548546 85.3574106 28.4375 87.4375 Z " fill="#0B1014" transform="translate(750,552)"/>
<path d="M0 0 C3.06278602 3.41567224 5.54294378 6.62883133 7 11 C8.07894531 10.99887207 9.15789063 10.99774414 10.26953125 10.99658203 C14.30309595 11.00027515 18.33547912 11.0432662 22.36865234 11.09765625 C24.10848337 11.11573577 25.84845704 11.12339944 27.58837891 11.12011719 C45.15915184 11.09997877 45.15915184 11.09997877 50.61425781 16.36865234 C51.07155273 16.90699707 51.52884766 17.4453418 52 18 C52.79148437 18.87140625 53.58296875 19.7428125 54.3984375 20.640625 C55.37683594 21.93226563 55.37683594 21.93226563 56.375 23.25 C60.8630116 28.95987863 65.76875412 33.96533538 71 39 C69.79020686 42.41417583 68.60734971 44.78988915 66 47.3125 C65.484375 47.82425781 64.96875 48.33601563 64.4375 48.86328125 C63 50 63 50 61 50 C59.30859375 48.35546875 59.30859375 48.35546875 57.4375 46.1875 C56.50744141 45.12595703 56.50744141 45.12595703 55.55859375 44.04296875 C54 42 54 42 53 39 C52.34 39 51.68 39 51 39 C49.44921875 37.390625 49.44921875 37.390625 47.6875 35.25 C42.39010731 28.99154336 42.39010731 28.99154336 35 26 C32.68463068 25.85180932 30.36596189 25.75238023 28.046875 25.68359375 C27.38665344 25.66281265 26.72643188 25.64203156 26.04620361 25.62062073 C23.94756985 25.55549853 21.84881628 25.49641498 19.75 25.4375 C18.32290453 25.39427921 16.89582095 25.3506638 15.46875 25.30664062 C11.97929278 25.19985589 8.48970247 25.09848434 5 25 C4.55756958 26.17719604 4.55756958 26.17719604 4.10620117 27.37817383 C1.82343458 32.78859766 -3.13608335 36.1715926 -8.375 38.5 C-16.40191318 39.60716044 -22.42539895 38.69870786 -29.01953125 33.796875 C-34.03462617 29.24669026 -36.73387926 24.15687958 -37.1328125 17.36328125 C-36.71912429 10.00206452 -34.31175737 4.07031385 -29 -1 C-19.55585488 -7.73653471 -8.86940677 -7.62098187 0 0 Z M-23 11 C-24.42266504 15.43342129 -24.58581505 18.77742947 -22.5625 23 C-19.1424245 25.66932722 -16.29135291 26.16776894 -12 26 C-8.56194102 24.91429716 -8.07075192 24.10612788 -6 21 C-5.41929473 15.18051663 -5.41929473 15.18051663 -7.875 10.0625 C-10.39168649 7.61983371 -11.33308219 7.07410198 -14.8125 6.6875 C-18.91921721 7.09011933 -20.31730366 7.85741285 -23 11 Z " fill="#0A0F13" transform="translate(645,352)"/>
<path d="M0 0 C1.22203125 -0.020625 2.4440625 -0.04125 3.703125 -0.0625 C15.36828099 -0.11192863 25.89274024 1.62121049 36.1875 7.25 C36.84169922 7.59289062 37.49589844 7.93578125 38.16992188 8.2890625 C39.43768598 8.95403586 40.70268179 9.62432362 41.96435547 10.30078125 C44.53474833 11.66715908 47.14086967 12.95954914 49.75 14.25 C50.01425781 13.65445312 50.27851562 13.05890625 50.55078125 12.4453125 C53.10118241 7.77649996 57.25967537 4.89674465 62.0625 2.8125 C68.90746151 1.76835333 74.52784637 2.13523244 80.5625 5.75 C86.15441574 9.9439368 89.12876038 14.43654451 90.2578125 21.3671875 C90.68975375 29.34871067 89.08714492 35.21621722 83.75 41.25 C78.02988338 45.91442654 72.71475162 47.63688193 65.375 47.51953125 C58.16789973 46.77951649 53.84520757 42.78689439 49.29296875 37.4453125 C47.75 35.25 47.75 35.25 46.4453125 32.28125 C44.40078765 28.62560188 41.9204098 26.77096796 38.4375 24.625 C37.81504395 24.23892578 37.19258789 23.85285156 36.55126953 23.45507812 C21.87444999 14.74291213 3.38125153 13.75531227 -13.25 16.25 C-14.09634488 11.17193071 -14.42765417 6.40197086 -14.25 1.25 C-11.55479378 -1.44520622 -3.61925306 0.01471241 0 0 Z M60.75 18.25 C58.7920433 21.31462787 58.74843276 23.16066741 58.8125 26.8125 C59.50157452 30.32234339 59.50157452 30.32234339 61.875 32.6875 C65.52675146 34.67214753 67.64522467 34.83639648 71.75 34.25 C74.69855414 32.71162393 76.29706386 31.5892371 77.3828125 28.37890625 C78.01171392 24.83966316 77.95079978 22.73614684 76.5625 19.375 C74.67165815 17.15815093 73.49790853 16.16596951 70.75 15.25 C66.33210361 15.25 64.44684621 15.91937956 60.75 18.25 Z " fill="#090F12" transform="translate(835.25,463.75)"/>
<path d="M0 0 C4.30306674 0.49770411 6.95130953 3.2464812 10.0625 6 C11.22720233 7.00857777 12.39257732 8.01637925 13.55859375 9.0234375 C14.13851074 9.52713867 14.71842773 10.03083984 15.31591797 10.54980469 C17.7175615 12.61790596 20.16757082 14.62369796 22.625 16.625 C23.50929688 17.34558594 24.39359375 18.06617188 25.3046875 18.80859375 C26.19414063 19.53175781 27.08359375 20.25492188 28 21 C29.91746861 22.56151577 31.83413948 24.12401165 33.75 25.6875 C34.66007813 26.42355469 35.57015625 27.15960937 36.5078125 27.91796875 C38.02376781 29.18443298 39.50865929 30.49115482 40.9296875 31.86328125 C44.84409033 35.64239366 47.22287328 36.33627619 52.59765625 36.62109375 C58.14463987 37.49598385 63.16451867 40.77390137 66.70703125 45.0703125 C70.46735372 50.94378448 71.76794558 56.0555778 71 63 C69.16911663 69.71691551 65.75666516 74.14959896 60 78 C55.12243267 80.69400521 50.41413818 81.49578894 44.9375 80.3125 C38.85280344 78.54711415 34.53414783 75.24028817 31 70 C26.75121721 61.95766114 27.44646254 56.37851081 30 48 C30.65572791 45.99638693 31.31875294 43.99508067 32 42 C31.43410156 41.75378906 30.86820313 41.50757813 30.28515625 41.25390625 C27.60751742 39.78463776 25.66956388 38.02247565 23.4375 35.9375 C19.01540573 31.88499426 14.47225099 28.04405399 9.80859375 24.2734375 C7.87412826 22.70756974 5.95019979 21.12862433 4.03515625 19.5390625 C3.07480469 18.74242187 2.11445312 17.94578125 1.125 17.125 C0.26132812 16.40570312 -0.60234375 15.68640625 -1.4921875 14.9453125 C-3.90351454 13.07484386 -6.3510909 11.50959336 -9 10 C-8.67 8.68 -8.34 7.36 -8 6 C-7.67 6.99 -7.34 7.98 -7 9 C-6.34 9 -5.68 9 -5 9 C-4.731875 8.443125 -4.46375 7.88625 -4.1875 7.3125 C-2.89877353 4.80287477 -1.47073522 2.40665764 0 0 Z M42.5625 51.625 C40.62768868 54.5659132 40.07190807 56.47650456 40 60 C41.3739373 62.87872577 42.74989437 64.74989437 45 67 C48.60582094 68.0416816 50.31966623 68.32470475 53.75 66.6875 C56.04566731 65.04861359 56.04566731 65.04861359 58 63 C58.35146876 58.43090614 57.24221629 54.95685227 55 51 C50.83743091 48.91871546 46.33779701 49.10813533 42.5625 51.625 Z M57 55 C58 57 58 57 58 57 Z " fill="#0A1014" transform="translate(857,522)"/>
<path d="M0 0 C6.03165128 3.05890886 9.84347037 8.01073315 12.125 14.375 C13.0183555 21.4673711 12.49153235 27.55720034 8.125 33.375 C4.74828513 36.89273776 1.4990655 39.18796725 -2.875 41.375 C-3.205 52.925 -3.535 64.475 -3.875 76.375 C-5.875 77.375 -5.875 77.375 -16.875 77.375 C-16.875 65.165 -16.875 52.955 -16.875 40.375 C-18.525 39.715 -20.175 39.055 -21.875 38.375 C-27.06969376 34.63482049 -29.91306294 31.3970122 -31.4140625 25.12109375 C-32.6330482 17.48450684 -30.24080952 12.10661904 -26.875 5.375 C-26.215 5.375 -25.555 5.375 -24.875 5.375 C-24.875 4.715 -24.875 4.055 -24.875 3.375 C-16.8168777 -2.19604751 -9.28927509 -3.65707341 0 0 Z M-16.875 13.375 C-18.98654871 15.96644615 -19.0100172 18.14888571 -18.8125 21.375 C-18.30563034 24.53409462 -17.89444066 25.3527821 -15.6875 27.875 C-12.38828339 29.63458219 -10.56434671 29.84598043 -6.875 29.375 C-3.53234795 28.16793121 -2.92795434 27.45443151 -0.875 24.375 C-0.43522295 19.8306371 -0.29114224 17.47265259 -2.4375 13.4375 C-7.25124177 9.36433389 -12.06530362 9.389823 -16.875 13.375 Z " fill="#0A1013" transform="translate(766.875,290.625)"/>
<path d="M0 0 C4.50783512 2.86862235 7.32173588 5.51303157 8.75 10.75 C9.27026049 16.12602507 8.96333672 19.63454989 6.02734375 24.2109375 C2.47049824 28.49655564 -2.00041827 30.52945277 -7.4375 31.0625 C-13.54767864 30.56166568 -17.66436299 28.57958116 -21.6875 23.9375 C-24.02822265 19.16242579 -24.469874 15.50899201 -23.8125 10.25 C-21.6890305 5.49342831 -18.47978556 2.7150378 -14.25 -0.25 C-9.20222786 -1.93259071 -4.89935987 -1.88436918 0 0 Z " fill="#060D11" transform="translate(609.25,418.25)"/>
<path d="M0 0 C0.99 0.495 0.99 0.495 2 1 C3.03127903 24.39202763 2.87677425 47.60543626 2 71 C1.01 71.495 1.01 71.495 0 72 C0 48.24 0 24.48 0 0 Z " fill="#020406" transform="translate(130,459)"/>
<path d="M0 0 C0.33 0.66 0.66 1.32 1 2 C13.54 1.67 26.08 1.34 39 1 C39 2.32 39 3.64 39 5 C29.85284858 6.02525926 20.93579253 5.96408992 11.75 5.5625 C10.40757858 5.50909533 9.06513047 5.45635733 7.72265625 5.40429688 C4.4814485 5.27604765 1.24066659 5.14116298 -2 5 C-1.125 1.125 -1.125 1.125 0 0 Z " fill="#1C1F20" transform="translate(649,583)"/>
<path d="M0 0 C0.33 0 0.66 0 1 0 C1 13.2 1 26.4 1 40 C9.25 40 17.5 40 26 40 C26 37.36 26 34.72 26 32 C26.66 32 27.32 32 28 32 C29 38.625 29 38.625 29 42 C19.43 42 9.86 42 0 42 C0 28.14 0 14.28 0 0 Z " fill="#050607" transform="translate(589,542)"/>
<path d="M0 0 C1.31419922 -0.01224609 2.62839844 -0.02449219 3.98242188 -0.03710938 C5.23474609 -0.03904297 6.48707031 -0.04097656 7.77734375 -0.04296875 C8.93355225 -0.04707764 10.08976074 -0.05118652 11.28100586 -0.05541992 C14.0625 0.1875 14.0625 0.1875 16.0625 2.1875 C2.6975 2.6825 2.6975 2.6825 -10.9375 3.1875 C-11.2675 6.1575 -11.5975 9.1275 -11.9375 12.1875 C-9.6275 12.1875 -7.3175 12.1875 -4.9375 12.1875 C-4.6075 13.1775 -4.2775 14.1675 -3.9375 15.1875 C-7.2375 15.5175 -10.5375 15.8475 -13.9375 16.1875 C-14.78384488 11.10943071 -15.11515417 6.33947086 -14.9375 1.1875 C-12.18198489 -1.56801511 -3.71775429 0.00181797 0 0 Z " fill="#2F3335" transform="translate(835.9375,463.8125)"/>
<path d="M0 0 C0.33 0.66 0.66 1.32 1 2 C2.01400879 1.9278125 3.02801758 1.855625 4.07275391 1.78125 C14.85721047 1.05620107 25.56990485 0.90381221 36.375 1 C39.46614162 1.02664777 42.55722463 1.04651573 45.6484375 1.0625 C46.69359024 1.07494751 46.69359024 1.07494751 47.75985718 1.08764648 C50.80083976 1.10320502 53.08813796 0.97062068 56 0 C56.99 0.33 57.98 0.66 59 1 C61.33299825 1.03954234 63.66708189 1.04401732 66 1 C66 1.66 66 2.32 66 3 C44.22 3 22.44 3 0 3 C0 2.01 0 1.02 0 0 Z " fill="#33373A" transform="translate(719,507)"/>
<path d="M0 0 C4.65361265 5.42921476 6.46263159 9.54779757 6.23828125 16.66796875 C5.48974941 23.99376399 2.59913701 27.94600935 -2.96484375 32.65234375 C-5.01415821 34.0093754 -6.59671592 34.57525852 -9 35 C-9 34.34 -9 33.68 -9 33 C-7.35546875 31.66796875 -7.35546875 31.66796875 -5.1875 30.1875 C-1.05124988 27.14012138 1.3574664 24.91922745 2.49609375 19.74609375 C3.41627337 13.53250973 2.46184233 9.7114742 0 4 C0 2.68 0 1.36 0 0 Z " fill="#191C1D" transform="translate(801,632)"/>
<path d="M0 0 C1.29349365 0.00523682 2.5869873 0.01047363 3.91967773 0.01586914 C4.9496714 0.01799156 4.9496714 0.01799156 6.00047302 0.02015686 C8.20144949 0.0257706 10.40232557 0.03832532 12.60327148 0.05102539 C14.09220231 0.05603863 15.58113473 0.06060184 17.07006836 0.06469727 C20.72700223 0.07574446 24.38387707 0.09301826 28.04077148 0.11352539 C28.04077148 1.76352539 28.04077148 3.41352539 28.04077148 5.11352539 C27.71077148 4.45352539 27.38077148 3.79352539 27.04077148 3.11352539 C22.60328514 3.08455717 18.16582302 3.06673751 13.72827148 3.05102539 C12.46563477 3.04264648 11.20299805 3.03426758 9.90209961 3.02563477 C8.69360352 3.02241211 7.48510742 3.01918945 6.23999023 3.01586914 C5.12454834 3.01063232 4.00910645 3.00539551 2.85986328 3 C-0.03974913 2.98603285 -0.03974913 2.98603285 -2.95922852 4.11352539 C-3.28922852 3.12352539 -3.61922852 2.13352539 -3.95922852 1.11352539 C-2.95922852 0.11352539 -2.95922852 0.11352539 0 0 Z " fill="#222526" transform="translate(290.959228515625,463.886474609375)"/>
<path d="M0 0 C0.33 0.99 0.66 1.98 1 3 C10.24 3 19.48 3 29 3 C29 3.66 29 4.32 29 5 C18.44 5 7.88 5 -3 5 C-2.67 3.68 -2.34 2.36 -2 1 C-1.34 0.67 -0.68 0.34 0 0 Z " fill="#040505" transform="translate(411,579)"/>
<path d="M0 0 C-0.05194909 3.25129636 -0.147037 6.49995065 -0.25 9.75 C-0.26417969 10.67039062 -0.27835938 11.59078125 -0.29296875 12.5390625 C-0.32519531 13.42851563 -0.35742188 14.31796875 -0.390625 15.234375 C-0.41157227 16.05131836 -0.43251953 16.86826172 -0.45410156 17.70996094 C-1 20 -1 20 -5 24 C-4.67 16.41 -4.34 8.82 -4 1 C-2 0 -2 0 0 0 Z " fill="#191B1D" transform="translate(719,570)"/>
<path d="M0 0 C0.99 0 1.98 0 3 0 C1.60699285 3.18651479 0.00047444 5.1870171 -2.5546875 7.53125 C-3.25207031 8.17707031 -3.94945312 8.82289063 -4.66796875 9.48828125 C-5.39628906 10.15214844 -6.12460937 10.81601562 -6.875 11.5 C-8.31037648 12.82239515 -9.74528634 14.14529699 -11.1796875 15.46875 C-12.18080566 16.38914062 -12.18080566 16.38914062 -13.20214844 17.328125 C-15.18435538 19.17143749 -17.11086327 21.06140943 -19 23 C-19.99 22.67 -20.98 22.34 -22 22 C-21.09121094 21.19949219 -21.09121094 21.19949219 -20.1640625 20.3828125 C-9.19138963 11.00043546 -9.19138963 11.00043546 0 0 Z " fill="#171A1C" transform="translate(874,404)"/>
<path d="M0 0 C0.66 0 1.32 0 2 0 C2 0.66 2 1.32 2 2 C2.99 2 3.98 2 5 2 C5.0825 2.94875 5.165 3.8975 5.25 4.875 C5.83320472 9.14022855 7.44752603 12.84059346 9.16015625 16.765625 C10 19 10 19 10 22 C9.34 22 8.68 22 8 22 C7.040062 19.93824636 6.08211576 17.87556531 5.125 15.8125 C4.59132813 14.66394531 4.05765625 13.51539063 3.5078125 12.33203125 C0 4.58031088 0 4.58031088 0 0 Z " fill="#131617" transform="translate(803,462)"/>
<path d="M0 0 C0.66 0 1.32 0 2 0 C2 0.99 2 1.98 2 3 C8.93 3 15.86 3 23 3 C23 3.66 23 4.32 23 5 C15.08 5 7.16 5 -1 5 C-0.67 3.35 -0.34 1.7 0 0 Z " fill="#020303" transform="translate(105,579)"/>
<path d="M0 0 C1.32 0.66 2.64 1.32 4 2 C3.67 2.66 3.34 3.32 3 4 C-8.88 3.67 -20.76 3.34 -33 3 C-33 3.66 -33 4.32 -33 5 C-33.99 5.33 -34.98 5.66 -36 6 C-35.34 4.35 -34.68 2.7 -34 1 C-22.78 1.33 -11.56 1.66 0 2 C0 1.34 0 0.68 0 0 Z " fill="#18191A" transform="translate(264,416)"/>
<path d="M0 0 C0.625 1.75 0.625 1.75 1 4 C0.67 4.5671875 0.34 5.134375 0 5.71875 C-1.39049937 8.89082668 -0.96710575 11.32894251 -0.625 14.75 C-0.51414062 15.92046875 -0.40328125 17.0909375 -0.2890625 18.296875 C-0.19367187 19.18890625 -0.09828125 20.0809375 0 21 C-0.66 21.33 -1.32 21.66 -2 22 C-4.52370906 15.02268671 -4.44070702 9.28481201 -1.4375 2.4375 C-0.7259375 1.2309375 -0.7259375 1.2309375 0 0 Z " fill="#1D1F21" transform="translate(612,356)"/>
<path d="M0 0 C0.66 0.33 1.32 0.66 2 1 C1.38511719 1.61875 1.38511719 1.61875 0.7578125 2.25 C-3.38381708 6.68887572 -4.95172154 10.02481279 -6 16 C-6.66 16 -7.32 16 -8 16 C-8 18.64 -8 21.28 -8 24 C-8.33 24 -8.66 24 -9 24 C-9.46137576 15.50726835 -8.44942659 9.7255338 -2.8125 3.0625 C-1.88344044 2.03397908 -0.94886403 1.01027917 0 0 Z " fill="#282B2D" transform="translate(773,629)"/>
<path d="M0 0 C0.66 0 1.32 0 2 0 C0.83753528 5.90805601 -0.5392669 11.48795785 -3 17 C-3.99 17.33 -4.98 17.66 -6 18 C-4.41039668 11.76559832 -2.72399099 5.83712355 0 0 Z " fill="#15181A" transform="translate(452,466)"/>
<path d="M0 0 C3.24669374 2.62827588 4.91295135 6.03680179 6 10 C6.23050021 13.02051312 6.18500938 15.97818015 6 19 C5.01 18.67 4.02 18.34 3 18 C3.061875 16.989375 3.12375 15.97875 3.1875 14.9375 C2.98209823 10.62406285 1.76575922 7.89938494 0 4 C0 2.68 0 1.36 0 0 Z " fill="#212427" transform="translate(922,566)"/>
<path d="M0 0 C2 1 2 1 3 2 C3.04080783 3.99958364 3.04254356 6.00045254 3 8 C1.5 6.625 1.5 6.625 0 5 C0 4.34 0 3.68 0 3 C-8.25 3 -16.5 3 -25 3 C-24.67 2.34 -24.34 1.68 -24 1 C-16.08 1.33 -8.16 1.66 0 2 C0 1.34 0 0.68 0 0 Z " fill="#121314" transform="translate(144,416)"/>
<path d="M0 0 C1.22329074 3.66987221 0.88021006 6.33967822 0.5625 10.1875 C0.46066406 11.45980469 0.35882812 12.73210938 0.25390625 14.04296875 C0.12822266 15.50669922 0.12822266 15.50669922 0 17 C-0.99 16.67 -1.98 16.34 -3 16 C-3.33266291 9.79029227 -2.45029331 5.71735105 0 0 Z " fill="#1C1F20" transform="translate(888,569)"/>
<path d="M0 0 C2.05727037 3.08590555 3.32318603 5.9934868 4.6875 9.4375 C5.14511719 10.57058594 5.60273437 11.70367188 6.07421875 12.87109375 C6.97073681 15.90109784 7.16241846 17.13270113 6 20 C3.28256973 17.28256973 2.49067114 14.13057954 1.3125 10.5625 C0.95575195 9.5405957 0.95575195 9.5405957 0.59179688 8.49804688 C-1.12211809 3.36635427 -1.12211809 3.36635427 0 0 Z " fill="#15181A" transform="translate(545,519)"/>
<path d="M0 0 C0.66 0 1.32 0 2 0 C2.054348 2.0622048 2.09294961 4.12482816 2.125 6.1875 C2.14820312 7.33605469 2.17140625 8.48460937 2.1953125 9.66796875 C2.00484152 12.91740372 1.39360127 15.08660521 0 18 C-0.33 18 -0.66 18 -1 18 C-1.02698422 15.56242587 -1.04683099 13.12515085 -1.0625 10.6875 C-1.07087891 9.99720703 -1.07925781 9.30691406 -1.08789062 8.59570312 C-1.10307906 5.4516975 -1.00193327 3.00579981 0 0 Z " fill="#202223" transform="translate(105,564)"/>
<path d="M0 0 C0.33 0.66 0.66 1.32 1 2 C-2.09875669 7.12486684 -5.46515951 11.79071246 -11.375 13.8125 C-11.91125 13.874375 -12.4475 13.93625 -13 14 C-13 13.34 -13 12.68 -13 12 C-11.35546875 10.66796875 -11.35546875 10.66796875 -9.1875 9.1875 C-5.83812247 6.7773659 -3.90951341 4.71294273 -2 1 C-1.34 0.67 -0.68 0.34 0 0 Z " fill="#1F2124" transform="translate(805,653)"/>
<path d="M0 0 C0.99 0.495 0.99 0.495 2 1 C4.71262116 1.2322646 7.40773126 1.41936235 10.125 1.5625 C11.25615234 1.62727539 11.25615234 1.62727539 12.41015625 1.69335938 C14.27321888 1.7994832 16.13658524 1.90025001 18 2 C17.67 2.66 17.34 3.32 17 4 C11.39 4 5.78 4 0 4 C0 2.68 0 1.36 0 0 Z " fill="#020304" transform="translate(814,583)"/>
<path d="M0 0 C0.66 0 1.32 0 2 0 C0.12275039 6.37732315 -1.85671642 12.70695459 -4 19 C-6 16 -6 16 -5.64453125 13.73046875 C-4.07802268 8.94268905 -2.44790014 4.42953359 0 0 Z " fill="#15181A" transform="translate(485,456)"/>
<path d="M0 0 C-3.48565712 2.32377141 -4.46061693 2.16262515 -8.5 1.75 C-9.4590625 1.66234375 -10.418125 1.5746875 -11.40625 1.484375 C-14 1 -14 1 -17 -1 C-11.07794424 -2.89505784 -5.71218387 -2.22914492 0 0 Z " fill="#222527" transform="translate(829,352)"/>
<path d="M0 0 C0.66 0.33 1.32 0.66 2 1 C0.73046875 2.46484375 -0.5390625 3.9296875 -1.80859375 5.39453125 C-3.20871231 7.10712971 -3.20871231 7.10712971 -4 10 C-4.66 10 -5.32 10 -6 10 C-6 13.3 -6 16.6 -6 20 C-6.33 20 -6.66 20 -7 20 C-8.08532588 14.68190319 -8.10782517 11.0404515 -6 6 C-4.13825433 3.75800389 -2.18733995 1.94958561 0 0 Z " fill="#232629" transform="translate(593,419)"/>
<path d="M0 0 C4.07239298 0.52684804 6.21598637 1.63049149 9.25 4.375 C9.93578125 4.98085938 10.6215625 5.58671875 11.328125 6.2109375 C13 8 13 8 14 11 C10.50004453 9.43810398 7.72827143 7.33666309 4.75 4.9375 C3.85796875 4.22464844 2.9659375 3.51179687 2.046875 2.77734375 C1.37140625 2.19082031 0.6959375 1.60429688 0 1 C0 0.67 0 0.34 0 0 Z " fill="#191B1D" transform="translate(861,541)"/>
<path d="M0 0 C-1 3 -1 3 -2.85546875 3.94921875 C-7.37075277 5.37868052 -11.19984755 6.3692425 -16 6 C-13.07256305 3.56954653 -10.52876737 2.3431896 -6.875 1.3125 C-6.00617187 1.06113281 -5.13734375 0.80976563 -4.2421875 0.55078125 C-2 0 -2 0 0 0 Z " fill="#202223" transform="translate(643,385)"/>
<path d="M0 0 C1.32 0.33 2.64 0.66 4 1 C3.01 1.495 3.01 1.495 2 2 C1.20006976 3.98133725 1.20006976 3.98133725 0.5625 6.3125 C-0.50286959 9.72603113 -1.54890342 12.31546565 -4 15 C-5.32830615 11.01508155 -4.23204404 9.59951452 -2.5625 5.8125 C-2.08941406 4.72582031 -1.61632812 3.63914062 -1.12890625 2.51953125 C-0.75636719 1.68808594 -0.38382813 0.85664062 0 0 Z " fill="#171A1C" transform="translate(209,525)"/>
<path d="M0 0 C1.97625073 2.9643761 3.29886906 5.78787746 4.6875 9.0625 C5.14511719 10.12597656 5.60273437 11.18945312 6.07421875 12.28515625 C6.37972656 13.18105469 6.68523438 14.07695312 7 15 C6.67 15.66 6.34 16.32 6 17 C2.86838668 15.43419334 2.54395566 12.82184478 1.3125 9.625 C0.85488281 8.46226562 0.39726563 7.29953125 -0.07421875 6.1015625 C-1 3 -1 3 0 0 Z " fill="#1A1D1E" transform="translate(795,439)"/>
<path d="M0 0 C1.66748747 2.50123121 2.89954361 4.77676357 4.125 7.5 C4.47820313 8.2734375 4.83140625 9.046875 5.1953125 9.84375 C6 12 6 12 6 15 C5.34 15 4.68 15 4 15 C3.13153169 13.25705322 2.28069373 11.50531337 1.4375 9.75 C0.72400391 8.28820312 0.72400391 8.28820312 -0.00390625 6.796875 C-1.03510273 3.90143703 -1.11346788 2.80033839 0 0 Z " fill="#171A1B" transform="translate(846,564)"/>
<path d="M0 0 C0.66 0 1.32 0 2 0 C1.37321829 3.66172475 0.35548154 6.8818995 -1.0625 10.3125 C-1.42472656 11.19550781 -1.78695313 12.07851563 -2.16015625 12.98828125 C-2.43730469 13.65214844 -2.71445312 14.31601562 -3 15 C-4.1484375 13.359375 -4.1484375 13.359375 -5 11 C-4.1015625 8.203125 -4.1015625 8.203125 -2.625 5.25 C-2.14289063 4.26515625 -1.66078125 3.2803125 -1.1640625 2.265625 C-0.77992188 1.51796875 -0.39578125 0.7703125 0 0 Z " fill="#181B1D" transform="translate(408,476)"/>
<path d="M0 0 C0.66 0.33 1.32 0.66 2 1 C0.64908907 5.42116304 -1.13117725 7.48076658 -5 10 C-7.8125 10.75 -7.8125 10.75 -10 11 C-10 10.34 -10 9.68 -10 9 C-8.63875 8.443125 -8.63875 8.443125 -7.25 7.875 C-3.54887824 5.73973745 -2.11346343 3.65791748 0 0 Z " fill="#1B1D1F" transform="translate(615,437)"/>
<path d="M0 0 C0.99 0 1.98 0 3 0 C3 0.99 3 1.98 3 3 C5.64 3 8.28 3 11 3 C11 3.99 11 4.98 11 6 C8.03 5.67 5.06 5.34 2 5 C1.67 4.01 1.34 3.02 1 2 C0.34 1.67 -0.32 1.34 -1 1 C-0.67 0.67 -0.34 0.34 0 0 Z " fill="#17181A" transform="translate(173,550)"/>
<path d="M0 0 C0.66 0 1.32 0 2 0 C3.76171875 1.86328125 3.76171875 1.86328125 5.6875 4.3125 C6.33074219 5.11300781 6.97398437 5.91351562 7.63671875 6.73828125 C8.08660156 7.48464844 8.53648437 8.23101563 9 9 C8.67 9.99 8.34 10.98 8 12 C6.65772954 10.57084149 5.32642904 9.13137328 4 7.6875 C3.2575 6.88699219 2.515 6.08648438 1.75 5.26171875 C0 3 0 3 0 0 Z " fill="#16181A" transform="translate(751,595)"/>
<path d="M0 0 C4.69159716 3.38772897 9.0299782 6.78185183 13 11 C10.125 10.25 10.125 10.25 7 9 C5.875 6.9375 5.875 6.9375 5 5 C2.94999129 4.19471111 2.94999129 4.19471111 1 4 C0.67 2.68 0.34 1.36 0 0 Z " fill="#202224" transform="translate(870,531)"/>
<path d="M0 0 C1.32 0.33 2.64 0.66 4 1 C3.01 1.495 3.01 1.495 2 2 C1.26924352 4.3140622 0.59861742 6.64828869 0 9 C0.66 9.33 1.32 9.66 2 10 C1.01 10 0.02 10 -1 10 C-1.33 10.66 -1.66 11.32 -2 12 C-3.12377697 8.69564916 -2.89554742 6.9493138 -1.5625 3.75 C-1.27503906 3.04359375 -0.98757813 2.3371875 -0.69140625 1.609375 C-0.46324219 1.07828125 -0.23507812 0.5471875 0 0 Z " fill="#191B1E" transform="translate(467,503)"/>
<path d="M0 0 C0.99 0 1.98 0 3 0 C3.86355778 1.95421035 4.71559934 3.91351347 5.5625 5.875 C6.03816406 6.96554687 6.51382813 8.05609375 7.00390625 9.1796875 C7.33261719 10.11039062 7.66132813 11.04109375 8 12 C7.67 12.66 7.34 13.32 7 14 C4.42528807 12.71264403 4.29583343 11.71510189 3.3125 9.0625 C3.04050781 8.35222656 2.76851562 7.64195312 2.48828125 6.91015625 C2 5 2 5 3 3 C2.34 3 1.68 3 1 3 C0.67 2.01 0.34 1.02 0 0 Z " fill="#191B1D" transform="translate(155,445)"/>
<path d="M0 0 C3.72070823 1.24023608 4.62521091 2.95730148 7 6 C7.99 6.66 8.98 7.32 10 8 C10 8.66 10 9.32 10 10 C4.98343041 8.5666944 2.98547118 6.09436048 0 2 C0 1.34 0 0.68 0 0 Z " fill="#191B1E" transform="translate(888,590)"/>
<path d="M0 0 C3.68266103 0.59950296 7.34543185 1.24758891 11 2 C11 2.66 11 3.32 11 4 C12.32 4.33 13.64 4.66 15 5 C8.92671312 5.50610724 5.22771463 4.04157942 0 1 C0 0.67 0 0.34 0 0 Z " fill="#26292B" transform="translate(590,444)"/>
<path d="M0 0 C-3.22300732 2.14867155 -4.78318881 2.40779872 -8.5625 2.75 C-9.53316406 2.84796875 -10.50382813 2.9459375 -11.50390625 3.046875 C-14 3 -14 3 -16 1 C-14.27327966 0.63409254 -12.54346345 0.28277805 -10.8125 -0.0625 C-9.36810547 -0.35833984 -9.36810547 -0.35833984 -7.89453125 -0.66015625 C-4.96389138 -1.00423947 -2.83692932 -0.74164697 0 0 Z " fill="#16181A" transform="translate(659,623)"/>
<path d="M0 0 C2.34914492 2.34914492 2.73140357 3.95679446 3.625 7.125 C3.88539063 8.03507813 4.14578125 8.94515625 4.4140625 9.8828125 C4.70410156 10.93082031 4.70410156 10.93082031 5 12 C2 11 2 11 0.25 8.25 C-1.06883276 4.82103483 -1.10867421 3.42681118 0 0 Z " fill="#181B1C" transform="translate(337,512)"/>
<path d="M0 0 C0.33 0 0.66 0 1 0 C1.48736475 6.70126536 0.07708804 11.06561592 -3 17 C-4.46257541 12.53426976 -2.89448037 10.22614851 -1 6 C-0.60235737 4.01178687 -0.24544834 2.01267638 0 0 Z " fill="#25292A" transform="translate(924,383)"/>
<path d="M0 0 C0.99 0.33 1.98 0.66 3 1 C4.06652192 3.30368736 5.06421005 5.64018187 6 8 C6.99 9.485 6.99 9.485 8 11 C7.01 11 6.02 11 5 11 C1.54736544 7.54736544 0.44925138 4.82945236 0 0 Z " fill="#1D2022" transform="translate(736,315)"/>
<path d="M0 0 C-1.39655297 3.49873271 -2.71260484 4.70891831 -6.125 6.25 C-7.21167969 6.75273437 -7.21167969 6.75273437 -8.3203125 7.265625 C-9.15175781 7.62914062 -9.15175781 7.62914062 -10 8 C-10 7.01 -10 6.02 -10 5 C-8.3203125 3.61328125 -8.3203125 3.61328125 -6.125 2.3125 C-5.40570312 1.87550781 -4.68640625 1.43851562 -3.9453125 0.98828125 C-2 0 -2 0 0 0 Z " fill="#16181A" transform="translate(864,432)"/>
<path d="M0 0 C0.99 0.33 1.98 0.66 3 1 C2.731875 1.515625 2.46375 2.03125 2.1875 2.5625 C0.67650593 5.66401415 -0.65572726 8.82262806 -2 12 C-2.66 11.67 -3.32 11.34 -4 11 C-3.52269162 9.5410574 -3.04308958 8.08286504 -2.5625 6.625 C-2.29566406 5.81289063 -2.02882813 5.00078125 -1.75390625 4.1640625 C-1 2 -1 2 0 0 Z " fill="#16181A" transform="translate(750,428)"/>
<path d="M0 0 C0.99 0.33 1.98 0.66 3 1 C0.03 3.97 -2.94 6.94 -6 10 C-6.33 9.01 -6.66 8.02 -7 7 C-4.69 4.69 -2.38 2.38 0 0 Z " fill="#181B1D" transform="translate(879,415)"/>
<path d="M0 0 C3.35250701 0.57575664 4.93818629 1.59306263 7.25 4.0625 C8.03117188 4.88427734 8.03117188 4.88427734 8.828125 5.72265625 C9.21484375 6.14417969 9.6015625 6.56570313 10 7 C9.67 7.99 9.34 8.98 9 10 C7.49702124 8.52386015 5.99768715 7.04400843 4.5 5.5625 C3.6646875 4.73878906 2.829375 3.91507812 1.96875 3.06640625 C0 1 0 1 0 0 Z " fill="#181A1B" transform="translate(686,379)"/>
<path d="M0 0 C1.1875 1.5625 1.1875 1.5625 2 4 C0.8125 7.6875 0.8125 7.6875 -1 11 C-1.99 11.33 -2.98 11.66 -4 12 C-2.66666667 8 -1.33333333 4 0 0 Z " fill="#1E2022" transform="translate(679,507)"/>
<path d="M0 0 C0 0.66 0 1.32 0 2 C0.99 2.33 1.98 2.66 3 3 C-2.28 2.67 -7.56 2.34 -13 2 C-13 1.67 -13 1.34 -13 1 C-4.57142857 -1.42857143 -4.57142857 -1.42857143 0 0 Z " fill="#2B2E31" transform="translate(853,477)"/>
<path d="M0 0 C1.1875 1.5625 1.1875 1.5625 2 4 C0.8125 7.6875 0.8125 7.6875 -1 11 C-1.99 11.33 -2.98 11.66 -4 12 C-2.66666667 8 -1.33333333 4 0 0 Z " fill="#171B1D" transform="translate(208,468)"/>
<path d="M0 0 C0.89203125 0.10183594 1.7840625 0.20367187 2.703125 0.30859375 C3.37859375 0.39238281 4.0540625 0.47617187 4.75 0.5625 C1.04873141 3.03001239 -0.87223532 2.86971156 -5.25 2.5625 C-7.6875 1.5625 -7.6875 1.5625 -9.25 0.5625 C-5.98086376 -0.46865279 -3.38958652 -0.4013984 0 0 Z " fill="#212426" transform="translate(906.25,466.4375)"/>
<path d="M0 0 C0.66 0 1.32 0 2 0 C2 0.99 2 1.98 2 3 C2.66 3 3.32 3 4 3 C5.42944945 5.35438733 6.08661261 6.48032433 5.625 9.25 C5.41875 9.8275 5.2125 10.405 5 11 C2.27773234 8.27773234 1.21103861 5.63311582 0 2 C0 1.34 0 0.68 0 0 Z " fill="#1A1D1F" transform="translate(764,459)"/>
<path d="M0 0 C1.79068573 2.6860286 2.66055791 4.6626589 3.625 7.6875 C3.88539063 8.49574219 4.14578125 9.30398438 4.4140625 10.13671875 C4.60742188 10.75160156 4.80078125 11.36648438 5 12 C4.01 12 3.02 12 2 12 C1.47026689 10.37787941 0.95146893 8.75218416 0.4375 7.125 C0.14746094 6.22007812 -0.14257812 5.31515625 -0.44140625 4.3828125 C-1 2 -1 2 0 0 Z " fill="#1C1F21" transform="translate(837,542)"/>
<path d="M0 0 C0.763125 0.309375 1.52625 0.61875 2.3125 0.9375 C4.18789677 1.67893593 6.08684652 2.36228217 8 3 C8.33 2.34 8.66 1.68 9 1 C9.33 1.99 9.66 2.98 10 4 C9 5 9 5 6.75 5.3125 C3.17678871 4.90645326 1.6100435 3.38632549 -1 1 C-0.67 0.67 -0.34 0.34 0 0 Z " fill="#1C1E20" transform="translate(877,475)"/>
<path d="M0 0 C0.33 0 0.66 0 1 0 C1.33278764 6.81598387 1.24201565 11.92122066 -2 18 C-2.33 18 -2.66 18 -3 18 C-3 16.35 -3 14.7 -3 13 C-2.34 13 -1.68 13 -1 13 C-1.33 12.01 -1.66 11.02 -2 10 C-1.67 9.67 -1.34 9.34 -1 9 C-0.76807135 7.48530552 -0.58784762 5.96245438 -0.4375 4.4375 C-0.35371094 3.61121094 -0.26992188 2.78492188 -0.18359375 1.93359375 C-0.12300781 1.29550781 -0.06242188 0.65742188 0 0 Z " fill="#26292C" transform="translate(840,367)"/>
<path d="M0 0 C0.66 0.66 1.32 1.32 2 2 C1.60871092 4.93466812 0.5574599 7.49075904 -1 10 C-1.99 10.33 -2.98 10.66 -4 11 C-2.7874262 7.27566618 -1.49140021 3.62197194 0 0 Z " fill="#1D2022" transform="translate(336,587)"/>
<path d="M0 0 C0.33 0 0.66 0 1 0 C1.05379226 2.95857409 1.09357093 5.91617721 1.125 8.875 C1.15013672 10.13763672 1.15013672 10.13763672 1.17578125 11.42578125 C1.18222656 12.23144531 1.18867187 13.03710938 1.1953125 13.8671875 C1.21102295 14.98262939 1.21102295 14.98262939 1.22705078 16.12060547 C1 18 1 18 -1 20 C-1.33 18.68 -1.66 17.36 -2 16 C-1.34 16 -0.68 16 0 16 C0 10.72 0 5.44 0 0 Z " fill="#131719" transform="translate(728,576)"/>
<path d="M0 0 C2.1519437 3.22791555 2.20086443 4.28400809 2 8 C2.66 8 3.32 8 4 8 C3.67 8.99 3.34 9.98 3 11 C0.49701566 8.06171403 -0.46930939 5.82097239 -1 2 C-1.99 1.67 -2.98 1.34 -4 1 C-2.68 0.67 -1.36 0.34 0 0 Z " fill="#1B1E1F" transform="translate(165,527)"/>
<path d="M0 0 C1 3 1 3 0.00390625 5.26171875 C-0.47175781 6.06222656 -0.94742188 6.86273438 -1.4375 7.6875 C-1.91058594 8.49574219 -2.38367188 9.30398438 -2.87109375 10.13671875 C-3.24363281 10.75160156 -3.61617187 11.36648438 -4 12 C-5.08784335 8.68604014 -5.07262544 8.16419665 -3.5625 4.75 C-3.046875 3.8425 -2.53125 2.935 -2 2 C-1.34 2 -0.68 2 0 2 C0 1.34 0 0.68 0 0 Z " fill="#1B1F20" transform="translate(924,492)"/>
<path d="M0 0 C0.99 0 1.98 0 3 0 C4.25541557 3.76624671 3.37061958 5.37188934 2 9 C1.34 8.67 0.68 8.34 0 8 C0 5.36 0 2.72 0 0 Z " fill="#161819" transform="translate(821,465)"/>
<path d="M0 0 C0.66 0.33 1.32 0.66 2 1 C2.625 4.0625 2.625 4.0625 3 7 C2.34 7 1.68 7 1 7 C0.67 7.99 0.34 8.98 0 10 C-0.33 10 -0.66 10 -1 10 C-1.02689216 8.52093108 -1.04634621 7.04172517 -1.0625 5.5625 C-1.07410156 4.73878906 -1.08570313 3.91507812 -1.09765625 3.06640625 C-1 1 -1 1 0 0 Z " fill="#15181A" transform="translate(824,420)"/>
<path d="M0 0 C0.99 0.66 1.98 1.32 3 2 C-2.5415502 3.96263236 -6.20858017 4.01603857 -12 3 C-12 2.67 -12 2.34 -12 2 C-10.37585622 1.80522261 -8.75063577 1.61940542 -7.125 1.4375 C-6.22007812 1.33308594 -5.31515625 1.22867187 -4.3828125 1.12109375 C-2 1 -2 1 0 2 C0 1.34 0 0.68 0 0 Z " fill="#2A2E30" transform="translate(909,405)"/>
<path d="M0 0 C4.04131267 1.34710422 4.90288434 3.38428334 7 7 C7 7.99 7 8.98 7 10 C3.60582235 6.87378374 1.3937282 4.43458973 0 0 Z " fill="#202124" transform="translate(632,651)"/>
<path d="M0 0 C-1.450954 3.82524236 -3.38181932 5.19090966 -7 7 C-7.66 7 -8.32 7 -9 7 C-7.68534669 3.05604006 -4.38536841 0 0 0 Z " fill="#16191B" transform="translate(341,625)"/>
<path d="M0 0 C4.37859255 0.50522222 6.81651224 3.17827222 10 6 C9.01 6.33 8.02 6.66 7 7 C6.34 6.67 5.68 6.34 5 6 C5 5.34 5 4.68 5 4 C4.360625 3.71125 3.72125 3.4225 3.0625 3.125 C1 2 1 2 0 0 Z " fill="#161819" transform="translate(882,543)"/>
<path d="M0 0 C0.99 0.99 1.98 1.98 3 3 C2.67 3.99 2.34 4.98 2 6 C2.66 6 3.32 6 4 6 C4.625 7.875 4.625 7.875 5 10 C4.34 10.66 3.68 11.32 3 12 C-0.42857143 4.71428571 -0.42857143 4.71428571 0 0 Z " fill="#16181A" transform="translate(305,504)"/>
<path d="M0 0 C2.22825644 2.22825644 2.69239369 3.65761628 3.625 6.625 C3.88539063 7.44226563 4.14578125 8.25953125 4.4140625 9.1015625 C4.60742188 9.72804688 4.80078125 10.35453125 5 11 C2 10 2 10 1.015625 8.22265625 C0.76296875 7.50980469 0.5103125 6.79695313 0.25 6.0625 C-0.01296875 5.35222656 -0.2759375 4.64195312 -0.546875 3.91015625 C-1 2 -1 2 0 0 Z " fill="#181B1C" transform="translate(179,498)"/>
<path d="M0 0 C1.90389849 2.85584773 2.69462177 4.9311762 3.625 8.1875 C4.01558594 9.53908203 4.01558594 9.53908203 4.4140625 10.91796875 C4.60742188 11.60503906 4.80078125 12.29210937 5 13 C4.01 12.67 3.02 12.34 2 12 C0.19204568 7.9083139 -0.21156222 4.44280672 0 0 Z " fill="#1F2224" transform="translate(522,458)"/>
<path d="M0 0 C1.98 0.99 1.98 0.99 4 2 C4 3.32 4 4.64 4 6 C4.2981424 7.34164079 4.62243192 8.67851173 5 10 C2 9 2 9 0.8125 7.25 C-0.10819096 4.70039426 -0.14948718 2.69076919 0 0 Z " fill="#1E2224" transform="translate(771,382)"/>
<path d="M0 0 C0.99 0.33 1.98 0.66 3 1 C3.33 3.97 3.66 6.94 4 10 C3.01 10.495 3.01 10.495 2 11 C1.855625 9.9275 1.71125 8.855 1.5625 7.75 C1.16250558 5.08337051 0.72408076 2.58600271 0 0 Z " fill="#121416" transform="translate(920,375)"/>
<path d="M0 0 C2.4932534 0.99730136 3.77467439 1.65074531 5.25 3.9375 C6 6 6 6 6 9 C5.34 9 4.68 9 4 9 C0 2.25 0 2.25 0 0 Z " fill="#1A1D1F" transform="translate(765,653)"/>
<path d="M0 0 C3.67420866 0.30618405 4.78135513 0.75771784 7.3125 3.5625 C8.1478125 4.7690625 8.1478125 4.7690625 9 6 C4.58763974 6 3.21615077 3.9302707 0 1 C0 0.67 0 0.34 0 0 Z " fill="#1B1D1E" transform="translate(894,553)"/>
<path d="M0 0 C2.33936818 2.12669835 3.80653848 4.06224856 5 7 C5 7.99 5 8.98 5 10 C4.34 10 3.68 10 3 10 C0.96564469 6.27034861 0 4.33094958 0 0 Z " fill="#181A1D" transform="translate(922,566)"/>
<path d="M0 0 C0.66 0.33 1.32 0.66 2 1 C2.73075648 3.3140622 3.40138258 5.64828869 4 8 C3.34 8.66 2.68 9.32 2 10 C1.01 7.03 0.02 4.06 -1 1 C-0.67 0.67 -0.34 0.34 0 0 Z " fill="#17191A" transform="translate(797,542)"/>
<path d="M0 0 C2.97903734 2.97903734 4 5.80285329 4 10 C3.34 10 2.68 10 2 10 C1.46987262 8.71211992 0.9511671 7.41953322 0.4375 6.125 C0.14746094 5.40570312 -0.14257812 4.68640625 -0.44140625 3.9453125 C-1 2 -1 2 0 0 Z " fill="#1A1C1E" transform="translate(827,518)"/>
<path d="M0 0 C0.66 0 1.32 0 2 0 C2.99 2.97 3.98 5.94 5 9 C3.68 8.34 2.36 7.68 1 7 C0.25 3.375 0.25 3.375 0 0 Z " fill="#181B1C" transform="translate(327,489)"/>
<path d="M0 0 C2.96052484 3.36423277 3.92289822 6.69159287 5 11 C3.68 10.34 2.36 9.68 1 9 C1.33 7.68 1.66 6.36 2 5 C1.34 5 0.68 5 0 5 C0 3.35 0 1.7 0 0 Z " fill="#1E2123" transform="translate(813,484)"/>
<path d="M0 0 C0.66 0 1.32 0 2 0 C2.99 2.97 3.98 5.94 5 9 C4.01 9 3.02 9 2 9 C1.34 6.03 0.68 3.06 0 0 Z " fill="#191B1D" transform="translate(516,446)"/>
<path d="M0 0 C0.99 0 1.98 0 3 0 C3.66 2.31 4.32 4.62 5 7 C4.34 7.66 3.68 8.32 3 9 C2.01 6.03 1.02 3.06 0 0 Z " fill="#191C1D" transform="translate(332,571)"/>
<path d="M0 0 C3 1 3 1 4.25 2.8125 C5.11637742 5.33943414 4.88492145 6.52221994 4 9 C2.00902154 6.01353231 1.05875074 3.40312738 0 0 Z " fill="#151618" transform="translate(806,567)"/>
<path d="M0 0 C2.18975773 3.28463659 2.99806563 6.20696275 4 10 C3.01 10 2.02 10 1 10 C0.63720544 8.71073008 0.28503302 7.41846728 -0.0625 6.125 C-0.35833984 5.04605469 -0.35833984 5.04605469 -0.66015625 3.9453125 C-1 2 -1 2 0 0 Z " fill="#1C1F20" transform="translate(560,559)"/>
<path d="M0 0 C0.66 0.33 1.32 0.66 2 1 C2 3.97 2 6.94 2 10 C1.34 10 0.68 10 0 10 C-1.36952673 7.26094655 -1.12621361 5.02912668 -1 2 C-0.67 1.34 -0.34 0.68 0 0 Z " fill="#151718" transform="translate(131,558)"/>
<path d="M0 0 C3.67420866 0.30618405 4.78135513 0.75771784 7.3125 3.5625 C8.1478125 4.7690625 8.1478125 4.7690625 9 6 C4.58763974 6 3.21615077 3.9302707 0 1 C0 0.67 0 0.34 0 0 Z " fill="#181C1E" transform="translate(853,534)"/>
<path d="M0 0 C2.6855594 2.6855594 3.06049974 5.37621328 4 9 C3.01 9 2.02 9 1 9 C-1.125 2.25 -1.125 2.25 0 0 Z " fill="#181A1C" transform="translate(831,528)"/>
<path d="M0 0 C0.99 0 1.98 0 3 0 C3.66 2.31 4.32 4.62 5 7 C4.01 7.495 4.01 7.495 3 8 C0 2.25 0 2.25 0 0 Z " fill="#17191B" transform="translate(156,512)"/>
<path d="M0 0 C0.66 0 1.32 0 2 0 C2.99 2.97 3.98 5.94 5 9 C3.68 8.34 2.36 7.68 1 7 C0.25 3.375 0.25 3.375 0 0 Z " fill="#181B1C" transform="translate(151,433)"/>
<path d="M0 0 C2 2 2 2 2.1953125 3.9453125 C2.13020833 5.96354167 2.06510417 7.98177083 2 10 C1.01 9.34 0.02 8.68 -1 8 C-1.25660094 4.92078868 -1.39431504 2.78863007 0 0 Z " fill="#25292C" transform="translate(616,427)"/>
<path d="M0 0 C1.41687119 4.25061356 0.19320039 6.71851625 -1 11 C-2.55136786 8.53606281 -3.03039129 7.31910854 -2.75 4.375 C-2 2 -2 2 0 0 Z " fill="#141719" transform="translate(622,360)"/>
<path d="M0 0 C0 0.66 0 1.32 0 2 C-1.66279327 3.0064275 -3.32983484 4.00585407 -5 5 C-5.66 5.99 -6.32 6.98 -7 8 C-7.36275695 3.52599758 -7.36275695 3.52599758 -5.75 1.1875 C-4 0 -4 0 0 0 Z " fill="#1A1C1F" transform="translate(755,300)"/>
<path d="M0 0 C0.99 0.66 1.98 1.32 3 2 C1.88625 2.45375 0.7725 2.9075 -0.375 3.375 C-3.96199008 4.72465986 -3.96199008 4.72465986 -6 7 C-5.67 5.35 -5.34 3.7 -5 2 C-4.01 2.33 -3.02 2.66 -2 3 C-2 2.34 -2 1.68 -2 1 C-1.34 0.67 -0.68 0.34 0 0 Z " fill="#25282A" transform="translate(679,643)"/>
<path d="M0 0 C2.25 0.25 2.25 0.25 4 1 C3.071875 1.3403125 3.071875 1.3403125 2.125 1.6875 C-0.61410209 3.37929835 -1.05024472 4.99244161 -2 8 C-2.66 6.68 -3.32 5.36 -4 4 C-2.25 1.9375 -2.25 1.9375 0 0 Z " fill="#1B1E21" transform="translate(646,635)"/>
<path d="M0 0 C-2.97 0.66 -5.94 1.32 -9 2 C-9 1.01 -9 0.02 -9 -1 C-4.80410573 -2.16552619 -4.17908064 -2.08954032 0 0 Z " fill="#1E2022" transform="translate(328,635)"/>
<path d="M0 0 C2.09350689 3.4019487 2.17942163 6.05272412 2 10 C0.35 10 -1.3 10 -3 10 C-3 9.34 -3 8.68 -3 8 C-2.34 7.67 -1.68 7.34 -1 7 C-0.59270772 4.67843403 -0.25561323 2.3431213 0 0 Z " fill="#0F1113" transform="translate(131,574)"/>
<path d="M0 0 C1.65 0.33 3.3 0.66 5 1 C5.33 1.99 5.66 2.98 6 4 C3.03 3.67 0.06 3.34 -3 3 C-2.01 2.67 -1.02 2.34 0 2 C0 1.34 0 0.68 0 0 Z " fill="#25282A" transform="translate(906,569)"/>
<path d="M0 0 C0.66 1.32 1.32 2.64 2 4 C0.02 6.97 0.02 6.97 -2 10 C-3 8 -3 8 -2.44140625 6.0546875 C-2.15136719 5.33539062 -1.86132812 4.61609375 -1.5625 3.875 C-1.27503906 3.15054688 -0.98757813 2.42609375 -0.69140625 1.6796875 C-0.46324219 1.12539063 -0.23507812 0.57109375 0 0 Z " fill="#1B1E21" transform="translate(432,519)"/>
<path d="M0 0 C1.32 0.33 2.64 0.66 4 1 C3.67 2.65 3.34 4.3 3 6 C2.01 6.33 1.02 6.66 0 7 C0.33 6.01 0.66 5.02 1 4 C0.61067144 1.85744207 0.61067144 1.85744207 0 0 Z " fill="#1B1E20" transform="translate(297,488)"/>
<path d="M0 0 C3.79588866 0.54226981 5.47211993 2.20127563 8 5 C4.40142046 5 2.90548882 4.04169485 0 2 C0 1.34 0 0.68 0 0 Z " fill="#191B1D" transform="translate(868,483)"/>
<path d="M0 0 C2.6855594 2.6855594 3.06049974 5.37621328 4 9 C3.01 8.67 2.02 8.34 1 8 C-0.25 5.0625 -0.25 5.0625 -1 2 C-0.67 1.34 -0.34 0.68 0 0 Z " fill="#1C1F20" transform="translate(321,471)"/>
<path d="M0 0 C2.6855594 2.6855594 3.06049974 5.37621328 4 9 C1 8 1 8 -0.25 5.625 C-1 3 -1 3 0 0 Z " fill="#171A1C" transform="translate(787,420)"/>
<path d="M0 0 C0.763125 0.61875 1.52625 1.2375 2.3125 1.875 C4.99625809 4.05597052 4.99625809 4.05597052 8 6 C2.46153846 6.36923077 2.46153846 6.36923077 0.125 4.5 C-0.24625 4.005 -0.6175 3.51 -1 3 C-0.67 2.01 -0.34 1.02 0 0 Z " fill="#191C1E" transform="translate(894,390)"/>
<path d="M0 0 C7.50769231 -0.36923077 7.50769231 -0.36923077 10 1.5 C10.495 2.2425 10.495 2.2425 11 3 C10.34 3.66 9.68 4.32 9 5 C8.443125 4.525625 7.88625 4.05125 7.3125 3.5625 C4.81653926 1.87604004 2.9553763 1.41046893 0 1 C0 0.67 0 0.34 0 0 Z " fill="#26282A" transform="translate(901,376)"/>
<path d="M0 0 C0.88672454 2.4828287 1.14518218 3.62029277 0.1875 6.125 C-1 8 -1 8 -3 10 C-2.25 3.375 -2.25 3.375 0 0 Z " fill="#25282A" transform="translate(612,356)"/>
<path d="M0 0 C0.66 0.99 1.32 1.98 2 3 C1.125 6.6875 1.125 6.6875 0 10 C-0.66 10 -1.32 10 -2 10 C-1.125 2.25 -1.125 2.25 0 0 Z " fill="#25282A" transform="translate(737,302)"/>
<path d="M0 0 C3.79588866 0.54226981 5.47211993 2.20127563 8 5 C3.48279689 5.36625971 3.48279689 5.36625971 1.1875 3.625 C0 2 0 2 0 0 Z " fill="#1F2223" transform="translate(765,291)"/>
<path d="M0 0 C0.33 0.99 0.66 1.98 1 3 C-1.97 5.475 -1.97 5.475 -5 8 C-4.45773019 4.20411134 -2.79872437 2.52788007 0 0 Z " fill="#131517" transform="translate(696,628)"/>
<path d="M0 0 C2.6855594 2.6855594 3.06049974 5.37621328 4 9 C3.01 8.67 2.02 8.34 1 8 C-0.25 5.0625 -0.25 5.0625 -1 2 C-0.67 1.34 -0.34 0.68 0 0 Z " fill="#1A1D1E" transform="translate(842,555)"/>
<path d="M0 0 C1.32 0.33 2.64 0.66 4 1 C4.33 3.31 4.66 5.62 5 8 C2.27573689 5.64722731 1.1858237 3.37503669 0 0 Z " fill="#242729" transform="translate(881,494)"/>
<path d="M0 0 C2.6855594 2.6855594 3.06049974 5.37621328 4 9 C3.01 8.67 2.02 8.34 1 8 C-0.25 5.0625 -0.25 5.0625 -1 2 C-0.67 1.34 -0.34 0.68 0 0 Z " fill="#1A1D1F" transform="translate(174,486)"/>
<path d="M0 0 C0.99 0.33 1.98 0.66 3 1 C4.1875 4.0625 4.1875 4.0625 5 7 C4.01 7.495 4.01 7.495 3 8 C0 2.25 0 2.25 0 0 Z " fill="#16181B" transform="translate(143,483)"/>
<path d="M0 0 C0.99 0 1.98 0 3 0 C2.01 3.3 1.02 6.6 0 10 C-0.66 8.68 -1.32 7.36 -2 6 C-1.67 5.34 -1.34 4.68 -1 4 C-0.34 4 0.32 4 1 4 C0.67 2.68 0.34 1.36 0 0 Z " fill="#1E2224" transform="translate(475,481)"/>
<path d="M0 0 C1.4540625 0.0309375 1.4540625 0.0309375 2.9375 0.0625 C3.2675 0.7225 3.5975 1.3825 3.9375 2.0625 C1.0625 2.6875 1.0625 2.6875 -2.0625 3.0625 C-2.7225 2.4025 -3.3825 1.7425 -4.0625 1.0625 C-3.0625 0.0625 -3.0625 0.0625 0 0 Z " fill="#141618" transform="translate(836.0625,475.9375)"/>
<path d="M0 0 C1.9375 0.75 1.9375 0.75 4 2 C4.75 4.125 4.75 4.125 5 6 C4.01 6.495 4.01 6.495 3 7 C1.5 5.75 1.5 5.75 0 4 C0 2.68 0 1.36 0 0 Z " fill="#202325" transform="translate(132,460)"/>
<path d="M0 0 C0.66 0.99 1.32 1.98 2 3 C1.3125 5.625 1.3125 5.625 0 8 C-0.99 8.33 -1.98 8.66 -3 9 C-2.01 6.03 -1.02 3.06 0 0 Z " fill="#16181B" transform="translate(699,459)"/>
<path d="M0 0 C2 1 2 1 3 2 C3.04080783 3.99958364 3.04254356 6.00045254 3 8 C1.5 6.625 1.5 6.625 0 5 C0 4.34 0 3.68 0 3 C-0.66 2.67 -1.32 2.34 -2 2 C-1.34 2 -0.68 2 0 2 C0 1.34 0 0.68 0 0 Z " fill="#1F2122" transform="translate(144,416)"/>
<path d="M0 0 C1.98 1.65 3.96 3.3 6 5 C5.67 5.99 5.34 6.98 5 8 C2.5 5.6875 2.5 5.6875 0 3 C0 2.01 0 1.02 0 0 Z " fill="#1C1E21" transform="translate(642,350)"/>
<path d="M0 0 C0.33 0 0.66 0 1 0 C1.66 2.97 2.32 5.94 3 9 C2.01 8.67 1.02 8.34 0 8 C-0.38063221 5.6739143 -0.71269945 3.33944736 -1 1 C-0.67 0.67 -0.34 0.34 0 0 Z " fill="#1A1D1F" transform="translate(747,308)"/>
<path d="M0 0 C0.99 0.99 1.98 1.98 3 3 C2.72963853 5.97397616 2.14553974 6.85446026 0 9 C0 6.03 0 3.06 0 0 Z " fill="#1E2223" transform="translate(766,305)"/>
<path d="M0 0 C-0.33 0.99 -0.66 1.98 -1 3 C-1.66 2.34 -2.32 1.68 -3 1 C-5.65537372 0.43479997 -8.29144713 0.26211802 -11 0 C-11 -0.33 -11 -0.66 -11 -1 C-3.375 -2.25 -3.375 -2.25 0 0 Z " fill="#2C2F32" transform="translate(793,638)"/>
<path d="M0 0 C0.99 0.33 1.98 0.66 3 1 C3.33 3.31 3.66 5.62 4 8 C2 5 2 5 1 3 C0.01 3 -0.98 3 -2 3 C-1.34 2.01 -0.68 1.02 0 0 Z " fill="#292D2F" transform="translate(658,635)"/>
<path d="M0 0 C0.33 0.66 0.66 1.32 1 2 C0.06553465 4.03144641 -0.93224776 6.03533587 -2 8 C-2.66 8 -3.32 8 -4 8 C-2.25 2.25 -2.25 2.25 0 0 Z " fill="#1E2021" transform="translate(636,630)"/>
<path d="M0 0 C3.91402949 1.26941497 5.79072873 2.51167694 8 6 C4.21032475 5.45861782 2.48587161 3.84099612 0 1 C0 0.67 0 0.34 0 0 Z " fill="#16191B" transform="translate(660,624)"/>
<path d="M0 0 C0.66 0 1.32 0 2 0 C0.8141763 3.37503669 -0.27573689 5.64722731 -3 8 C-2.45276317 4.62537285 -1.9451 2.91765 0 0 Z " fill="#181B1D" transform="translate(353,609)"/>
<path d="M0 0 C3.875 4.75 3.875 4.75 5 7 C3.68 7 2.36 7 1 7 C-0.0625 4.625 -0.0625 4.625 -1 2 C-0.67 1.34 -0.34 0.68 0 0 Z " fill="#1D2022" transform="translate(897,582)"/>
<path d="M0 0 C0.66 0 1.32 0 2 0 C1.01 2.97 0.02 5.94 -1 9 C-1.66 8.01 -2.32 7.02 -3 6 C-2.67 5.34 -2.34 4.68 -2 4 C-1.34 4 -0.68 4 0 4 C-0.33 3.01 -0.66 2.02 -1 1 C-0.67 0.67 -0.34 0.34 0 0 Z " fill="#212426" transform="translate(370,570)"/>
<path d="M0 0 C0.66 0.66 1.32 1.32 2 2 C1.625 5.125 1.625 5.125 1 8 C0.01 8 -0.98 8 -2 8 C-1.34 5.36 -0.68 2.72 0 0 Z " fill="#17191C" transform="translate(363,518)"/>
<path d="M0 0 C0.66 0.66 1.32 1.32 2 2 C1.625 5.125 1.625 5.125 1 8 C0.01 8 -0.98 8 -2 8 C-1.34 5.36 -0.68 2.72 0 0 Z " fill="#1A1D1F" transform="translate(437,505)"/>
<path d="M0 0 C0.66 0.33 1.32 0.66 2 1 C1.67 2.98 1.34 4.96 1 7 C0.01 7.33 -0.98 7.66 -2 8 C-1.34 5.36 -0.68 2.72 0 0 Z " fill="#1B1E21" transform="translate(440,497)"/>
<path d="M0 0 C0.66 0 1.32 0 2 0 C2 0.99 2 1.98 2 3 C2.66 3 3.32 3 4 3 C4.625 4.875 4.625 4.875 5 7 C4.34 7.66 3.68 8.32 3 9 C2.01 6.03 1.02 3.06 0 0 Z " fill="#1C1E1F" transform="translate(771,476)"/>
<path d="M0 0 C0.66 1.32 1.32 2.64 2 4 C0.02 6.97 0.02 6.97 -2 10 C-3 8 -3 8 -2.44140625 6.0546875 C-2.15136719 5.33539063 -1.86132812 4.61609375 -1.5625 3.875 C-1.27503906 3.15054687 -0.98757813 2.42609375 -0.69140625 1.6796875 C-0.46324219 1.12539063 -0.23507812 0.57109375 0 0 Z " fill="#212425" transform="translate(383,465)"/>
<path d="M0 0 C0.33 0.66 0.66 1.32 1 2 C0.06421005 4.35981813 -0.93347808 6.69631264 -2 9 C-2.66 8.67 -3.32 8.34 -4 8 C-4 7.34 -4 6.68 -4 6 C-3.34 6 -2.68 6 -2 6 C-2.33 5.01 -2.66 4.02 -3 3 C-2.01 2.01 -1.02 1.02 0 0 Z " fill="#1D2023" transform="translate(236,466)"/>
<path d="M0 0 C0.66 0 1.32 0 2 0 C2 0.66 2 1.32 2 2 C2.99 2 3.98 2 5 2 C4.34 3.32 3.68 4.64 3 6 C2.01 5.34 1.02 4.68 0 4 C0 2.68 0 1.36 0 0 Z " fill="#1F2224" transform="translate(803,462)"/>
<path d="M0 0 C0.33 0.66 0.66 1.32 1 2 C1.66 2.33 2.32 2.66 3 3 C3 4.65 3 6.3 3 8 C2.34 8 1.68 8 1 8 C0.26919734 6.02253397 -0.39421747 4.01927511 -1 2 C-0.67 1.34 -0.34 0.68 0 0 Z " fill="#1D2021" transform="translate(511,430)"/>
<path d="M0 0 C0.66 0.66 1.32 1.32 2 2 C-2.75 6 -2.75 6 -5 6 C-3.86695008 2.60085025 -2.87481525 1.94745549 0 0 Z " fill="#1D1E20" transform="translate(917,400)"/>
<path d="M0 0 C0.86625 0.556875 0.86625 0.556875 1.75 1.125 C-0.9239124 2.01630413 -3.48723823 2.60231534 -6.25 3.125 C-6.25 2.465 -6.25 1.805 -6.25 1.125 C-2.80384615 -1.09038462 -2.80384615 -1.09038462 0 0 Z " fill="#1F2224" transform="translate(831.25,389.875)"/>
<path d="M0 0 C3.93774177 -0.36630156 5.56539771 -0.30233203 8.875 2 C9.926875 2.99 9.926875 2.99 11 4 C8.03 3.505 8.03 3.505 5 3 C5 2.34 5 1.68 5 1 C3.35 1 1.7 1 0 1 C0 0.67 0 0.34 0 0 Z " fill="#1A1B1D" transform="translate(683,364)"/>
<path d="M0 0 C2.64 0 5.28 0 8 0 C8 0.33 8 0.66 8 1 C5.36 1 2.72 1 0 1 C0 0.67 0 0.34 0 0 Z " fill="#34373B" transform="translate(759,543)"/>
<path d="M0 0 C2.31 0 4.62 0 7 0 C7 0.33 7 0.66 7 1 C4.69 1 2.38 1 0 1 C0 0.67 0 0.34 0 0 Z " fill="#33363A" transform="translate(720,543)"/>
<path d="M0 0 C4 1 4 1 4 1 Z " fill="#373B3F" transform="translate(773,543)"/>
<path d="M0 0 C0.99 0.495 0.99 0.495 2 1 C1.67 1.66 1.34 2.32 1 3 C0.67 2.01 0.34 1.02 0 0 Z " fill="#323538" transform="translate(162,530)"/>
<path d="M0 0 C3 1 3 1 3 1 Z " fill="#454849" transform="translate(825,589)"/>
<path d="" fill="#3D4043" transform="translate(0,0)"/>
<path d="M0 0 C3 1 3 1 3 1 Z " fill="#414548" transform="translate(916,560)"/>
<path d="" fill="#35393C" transform="translate(0,0)"/>
<path d="" fill="#393B40" transform="translate(0,0)"/>
<path d="M0 0 C3 1 3 1 3 1 Z " fill="#373B3E" transform="translate(768,543)"/>
<path d="M0 0 C0.66 0 1.32 0 2 0 C1.67 0.66 1.34 1.32 1 2 C0.67 1.34 0.34 0.68 0 0 Z " fill="#303337" transform="translate(236,470)"/>
<path d="M0 0 C3 1 3 1 3 1 Z " fill="#4D5152" transform="translate(896,363)"/>
<path d="M0 0 C0.66 0.66 1.32 1.32 2 2 C1.34 2 0.68 2 0 2 C0 1.34 0 0.68 0 0 Z " fill="#44464A" transform="translate(740,326)"/>
<path d="M0 0 C2 1 2 1 2 1 Z " fill="#525656" transform="translate(655,667)"/>
<path d="M0 0 C2 1 2 1 2 1 Z " fill="#3B3C40" transform="translate(782,639)"/>
<path d="M0 0 C2 1 2 1 2 1 Z " fill="#44474B" transform="translate(308,639)"/>
<path d="M0 0 C2 1 2 1 2 1 Z " fill="#45494B" transform="translate(329,635)"/>
<path d="" fill="#494C50" transform="translate(0,0)"/>
<path d="M0 0 C2 1 2 1 2 1 Z " fill="#464748" transform="translate(835,589)"/>
<path d="" fill="#46494D" transform="translate(0,0)"/>
<path d="" fill="#3B4042" transform="translate(0,0)"/>
<path d="" fill="#333A3B" transform="translate(0,0)"/>
<path d="" fill="#34383C" transform="translate(0,0)"/>
<path d="" fill="#373B3C" transform="translate(0,0)"/>
<path d="" fill="#35393B" transform="translate(0,0)"/>
<path d="" fill="#323639" transform="translate(0,0)"/>
<path d="" fill="#393D40" transform="translate(0,0)"/>
<path d="" fill="#393E3F" transform="translate(0,0)"/>
<path d="M0 0 C2 1 2 1 2 1 Z " fill="#2F3235" transform="translate(351,544)"/>
<path d="M0 0 C2 1 2 1 2 1 Z " fill="#323539" transform="translate(793,543)"/>
<path d="M0 0 C2 1 2 1 2 1 Z " fill="#333639" transform="translate(788,543)"/>
<path d="M0 0 C2 1 2 1 2 1 Z " fill="#36383D" transform="translate(756,543)"/>
<path d="M0 0 C2 1 2 1 2 1 Z " fill="#353B3D" transform="translate(752,543)"/>
<path d="M0 0 C2 1 2 1 2 1 Z " fill="#37393C" transform="translate(741,543)"/>
<path d="M0 0 C2 1 2 1 2 1 Z " fill="#363A3D" transform="translate(736,543)"/>
<path d="M0 0 C2 1 2 1 2 1 Z " fill="#34363A" transform="translate(716,543)"/>
<path d="M0 0 C2 1 2 1 2 1 Z " fill="#323639" transform="translate(712,543)"/>
<path d="M0 0 C2 1 2 1 2 1 Z " fill="#36393D" transform="translate(314,535)"/>
<path d="" fill="#333739" transform="translate(0,0)"/>
<path d="" fill="#35383D" transform="translate(0,0)"/>
<path d="" fill="#373D3F" transform="translate(0,0)"/>
<path d="" fill="#363A3C" transform="translate(0,0)"/>
<path d="" fill="#373C40" transform="translate(0,0)"/>
<path d="" fill="#383C3F" transform="translate(0,0)"/>
<path d="" fill="#2F3236" transform="translate(0,0)"/>
<path d="M0 0 C2 1 2 1 2 1 Z " fill="#383C3D" transform="translate(289,476)"/>
<path d="M0 0 C2 1 2 1 2 1 Z " fill="#393B3F" transform="translate(288,474)"/>
<path d="" fill="#393E40" transform="translate(0,0)"/>
<path d="" fill="#383C3E" transform="translate(0,0)"/>
<path d="" fill="#313537" transform="translate(0,0)"/>
<path d="" fill="#383D40" transform="translate(0,0)"/>
<path d="" fill="#393D43" transform="translate(0,0)"/>
<path d="" fill="#383D41" transform="translate(0,0)"/>
<path d="M0 0 C2 1 2 1 2 1 Z " fill="#393D41" transform="translate(848,426)"/>
<path d="M0 0 C2 1 2 1 2 1 Z " fill="#454A4A" transform="translate(504,416)"/>
<path d="M0 0 C2 1 2 1 2 1 Z " fill="#3F4347" transform="translate(892,407)"/>
<path d="" fill="#424648" transform="translate(0,0)"/>
<path d="M0 0 C2 1 2 1 2 1 Z " fill="#444649" transform="translate(619,389)"/>
<path d="" fill="#464A4C" transform="translate(0,0)"/>
<path d="" fill="#494A4E" transform="translate(0,0)"/>
<path d="" fill="#6A6C6B" transform="translate(0,0)"/>
<path d="" fill="#515655" transform="translate(0,0)"/>
<path d="" fill="#555A59" transform="translate(0,0)"/>
<path d="" fill="#525858" transform="translate(0,0)"/>
<path d="" fill="#53585A" transform="translate(0,0)"/>
<path d="" fill="#555558" transform="translate(0,0)"/>
<path d="" fill="#505356" transform="translate(0,0)"/>
<path d="" fill="#505557" transform="translate(0,0)"/>
<path d="" fill="#565659" transform="translate(0,0)"/>
<path d="" fill="#4B5153" transform="translate(0,0)"/>
<path d="" fill="#3D4346" transform="translate(0,0)"/>
<path d="" fill="#3F4345" transform="translate(0,0)"/>
<path d="" fill="#484A4D" transform="translate(0,0)"/>
<path d="" fill="#484D4C" transform="translate(0,0)"/>
<path d="" fill="#3F4344" transform="translate(0,0)"/>
<path d="" fill="#474A4D" transform="translate(0,0)"/>
<path d="" fill="#3D3F42" transform="translate(0,0)"/>
<path d="" fill="#3F4245" transform="translate(0,0)"/>
<path d="" fill="#464749" transform="translate(0,0)"/>
<path d="" fill="#44494F" transform="translate(0,0)"/>
<path d="" fill="#43484C" transform="translate(0,0)"/>
<path d="" fill="#454748" transform="translate(0,0)"/>
<path d="" fill="#3A3D40" transform="translate(0,0)"/>
<path d="" fill="#43474B" transform="translate(0,0)"/>
<path d="" fill="#3D4446" transform="translate(0,0)"/>
<path d="" fill="#3F4246" transform="translate(0,0)"/>
<path d="" fill="#45474C" transform="translate(0,0)"/>
<path d="" fill="#424647" transform="translate(0,0)"/>
<path d="" fill="#404546" transform="translate(0,0)"/>
<path d="" fill="#3F4144" transform="translate(0,0)"/>
<path d="" fill="#434446" transform="translate(0,0)"/>
<path d="" fill="#424447" transform="translate(0,0)"/>
<path d="" fill="#414648" transform="translate(0,0)"/>
<path d="" fill="#45474A" transform="translate(0,0)"/>
<path d="" fill="#3C4146" transform="translate(0,0)"/>
<path d="" fill="#3E4243" transform="translate(0,0)"/>
<path d="" fill="#414345" transform="translate(0,0)"/>
<path d="" fill="#505352" transform="translate(0,0)"/>
<path d="" fill="#3C4040" transform="translate(0,0)"/>
<path d="" fill="#3D3F42" transform="translate(0,0)"/>
<path d="" fill="#414547" transform="translate(0,0)"/>
<path d="" fill="#3A4042" transform="translate(0,0)"/>
<path d="" fill="#454B4E" transform="translate(0,0)"/>
<path d="" fill="#3E4144" transform="translate(0,0)"/>
<path d="" fill="#45494D" transform="translate(0,0)"/>
<path d="" fill="#3B4142" transform="translate(0,0)"/>
<path d="" fill="#3B4041" transform="translate(0,0)"/>
<path d="" fill="#3C3D44" transform="translate(0,0)"/>
<path d="" fill="#404547" transform="translate(0,0)"/>
<path d="" fill="#494C50" transform="translate(0,0)"/>
<path d="" fill="#454849" transform="translate(0,0)"/>
<path d="" fill="#434849" transform="translate(0,0)"/>
<path d="" fill="#454648" transform="translate(0,0)"/>
<path d="" fill="#43484A" transform="translate(0,0)"/>
<path d="" fill="#45484B" transform="translate(0,0)"/>
<path d="" fill="#3D4244" transform="translate(0,0)"/>
<path d="" fill="#404244" transform="translate(0,0)"/>
<path d="" fill="#3D4243" transform="translate(0,0)"/>
<path d="" fill="#414448" transform="translate(0,0)"/>
<path d="" fill="#424547" transform="translate(0,0)"/>
<path d="" fill="#3C3E41" transform="translate(0,0)"/>
<path d="" fill="#373A3D" transform="translate(0,0)"/>
<path d="" fill="#3E4144" transform="translate(0,0)"/>
<path d="" fill="#3E4143" transform="translate(0,0)"/>
<path d="" fill="#404045" transform="translate(0,0)"/>
<path d="" fill="#404347" transform="translate(0,0)"/>
<path d="" fill="#393E41" transform="translate(0,0)"/>
<path d="" fill="#45474B" transform="translate(0,0)"/>
<path d="" fill="#3F4445" transform="translate(0,0)"/>
<path d="" fill="#404447" transform="translate(0,0)"/>
<path d="" fill="#414546" transform="translate(0,0)"/>
<path d="" fill="#36393C" transform="translate(0,0)"/>
<path d="" fill="#343A3E" transform="translate(0,0)"/>
<path d="" fill="#373A3E" transform="translate(0,0)"/>
<path d="" fill="#35393D" transform="translate(0,0)"/>
<path d="" fill="#363A3D" transform="translate(0,0)"/>
<path d="" fill="#383E40" transform="translate(0,0)"/>
<path d="" fill="#393C41" transform="translate(0,0)"/>
<path d="" fill="#3D4042" transform="translate(0,0)"/>
<path d="" fill="#35393C" transform="translate(0,0)"/>
<path d="" fill="#3B4141" transform="translate(0,0)"/>
<path d="" fill="#464949" transform="translate(0,0)"/>
<path d="" fill="#393D40" transform="translate(0,0)"/>
<path d="" fill="#383B3F" transform="translate(0,0)"/>
<path d="" fill="#343A3C" transform="translate(0,0)"/>
<path d="" fill="#353A3C" transform="translate(0,0)"/>
<path d="" fill="#363B3E" transform="translate(0,0)"/>
<path d="" fill="#3D3F40" transform="translate(0,0)"/>
<path d="" fill="#3A3F41" transform="translate(0,0)"/>
<path d="" fill="#383D3D" transform="translate(0,0)"/>
<path d="" fill="#363B3E" transform="translate(0,0)"/>
<path d="" fill="#353B3D" transform="translate(0,0)"/>
<path d="" fill="#373E3F" transform="translate(0,0)"/>
<path d="" fill="#34393B" transform="translate(0,0)"/>
<path d="" fill="#33383B" transform="translate(0,0)"/>
<path d="" fill="#34393A" transform="translate(0,0)"/>
<path d="" fill="#323538" transform="translate(0,0)"/>
<path d="" fill="#343839" transform="translate(0,0)"/>
<path d="" fill="#343839" transform="translate(0,0)"/>
<path d="" fill="#35373E" transform="translate(0,0)"/>
<path d="" fill="#36393E" transform="translate(0,0)"/>
<path d="" fill="#373A3D" transform="translate(0,0)"/>
<path d="" fill="#37393E" transform="translate(0,0)"/>
<path d="" fill="#35393E" transform="translate(0,0)"/>
<path d="" fill="#32363A" transform="translate(0,0)"/>
<path d="" fill="#34363A" transform="translate(0,0)"/>
<path d="" fill="#393E3F" transform="translate(0,0)"/>
<path d="" fill="#393D3F" transform="translate(0,0)"/>
<path d="" fill="#2F3033" transform="translate(0,0)"/>
<path d="" fill="#2F3336" transform="translate(0,0)"/>
<path d="" fill="#353839" transform="translate(0,0)"/>
<path d="" fill="#363A3F" transform="translate(0,0)"/>
<path d="" fill="#393E40" transform="translate(0,0)"/>
<path d="" fill="#36383E" transform="translate(0,0)"/>
<path d="" fill="#34383A" transform="translate(0,0)"/>
<path d="" fill="#323639" transform="translate(0,0)"/>
<path d="" fill="#434749" transform="translate(0,0)"/>
<path d="" fill="#373A3D" transform="translate(0,0)"/>
<path d="" fill="#3E4346" transform="translate(0,0)"/>
<path d="" fill="#323739" transform="translate(0,0)"/>
<path d="" fill="#393D40" transform="translate(0,0)"/>
<path d="" fill="#35383D" transform="translate(0,0)"/>
<path d="" fill="#313537" transform="translate(0,0)"/>
<path d="" fill="#393E41" transform="translate(0,0)"/>
<path d="" fill="#33393A" transform="translate(0,0)"/>
<path d="" fill="#303637" transform="translate(0,0)"/>
<path d="" fill="#363A3D" transform="translate(0,0)"/>
<path d="" fill="#333639" transform="translate(0,0)"/>
<path d="" fill="#444A4C" transform="translate(0,0)"/>
<path d="" fill="#313539" transform="translate(0,0)"/>
<path d="" fill="#2F3434" transform="translate(0,0)"/>
<path d="" fill="#33373A" transform="translate(0,0)"/>
<path d="" fill="#32373A" transform="translate(0,0)"/>
<path d="" fill="#424647" transform="translate(0,0)"/>
<path d="" fill="#34393D" transform="translate(0,0)"/>
<path d="" fill="#303237" transform="translate(0,0)"/>
<path d="" fill="#323437" transform="translate(0,0)"/>
<path d="" fill="#313535" transform="translate(0,0)"/>
<path d="" fill="#383C3D" transform="translate(0,0)"/>
<path d="" fill="#3F4244" transform="translate(0,0)"/>
<path d="" fill="#343A3C" transform="translate(0,0)"/>
<path d="" fill="#3E4346" transform="translate(0,0)"/>
<path d="" fill="#33373A" transform="translate(0,0)"/>
<path d="" fill="#313638" transform="translate(0,0)"/>
<path d="" fill="#3E4247" transform="translate(0,0)"/>
<path d="" fill="#393E43" transform="translate(0,0)"/>
<path d="" fill="#394041" transform="translate(0,0)"/>
<path d="" fill="#383F40" transform="translate(0,0)"/>
<path d="" fill="#3C4044" transform="translate(0,0)"/>
<path d="" fill="#34363A" transform="translate(0,0)"/>
<path d="" fill="#33363A" transform="translate(0,0)"/>
<path d="" fill="#373C3D" transform="translate(0,0)"/>
<path d="" fill="#373A3D" transform="translate(0,0)"/>
<path d="" fill="#393C43" transform="translate(0,0)"/>
<path d="" fill="#404244" transform="translate(0,0)"/>
<path d="" fill="#373A3B" transform="translate(0,0)"/>
<path d="" fill="#3E4244" transform="translate(0,0)"/>
<path d="" fill="#414246" transform="translate(0,0)"/>
<path d="" fill="#3E4042" transform="translate(0,0)"/>
<path d="" fill="#353A3C" transform="translate(0,0)"/>
<path d="" fill="#393D40" transform="translate(0,0)"/>
<path d="" fill="#2F3336" transform="translate(0,0)"/>
<path d="" fill="#3A3E41" transform="translate(0,0)"/>
<path d="" fill="#343839" transform="translate(0,0)"/>
<path d="" fill="#3B3F42" transform="translate(0,0)"/>
<path d="" fill="#343B3C" transform="translate(0,0)"/>
<path d="" fill="#363B40" transform="translate(0,0)"/>
<path d="" fill="#36393C" transform="translate(0,0)"/>
<path d="" fill="#4F5354" transform="translate(0,0)"/>
<path d="" fill="#373A3B" transform="translate(0,0)"/>
<path d="" fill="#3D4042" transform="translate(0,0)"/>
<path d="" fill="#34393B" transform="translate(0,0)"/>
<path d="" fill="#394041" transform="translate(0,0)"/>
<path d="" fill="#3A3C41" transform="translate(0,0)"/>
<path d="" fill="#35383C" transform="translate(0,0)"/>
<path d="" fill="#3B4041" transform="translate(0,0)"/>
<path d="" fill="#3F4347" transform="translate(0,0)"/>
<path d="" fill="#323438" transform="translate(0,0)"/>
<path d="" fill="#424848" transform="translate(0,0)"/>
<path d="" fill="#3C3E41" transform="translate(0,0)"/>
<path d="" fill="#3C4246" transform="translate(0,0)"/>
<path d="" fill="#333739" transform="translate(0,0)"/>
<path d="" fill="#4F5252" transform="translate(0,0)"/>
<path d="" fill="#363C3F" transform="translate(0,0)"/>
<path d="" fill="#373E3F" transform="translate(0,0)"/>
<path d="" fill="#3F4346" transform="translate(0,0)"/>
<path d="" fill="#484C4F" transform="translate(0,0)"/>
<path d="" fill="#363B3B" transform="translate(0,0)"/>
<path d="" fill="#474C4D" transform="translate(0,0)"/>
<path d="" fill="#2F3337" transform="translate(0,0)"/>
<path d="" fill="#313438" transform="translate(0,0)"/>
<path d="" fill="#42484A" transform="translate(0,0)"/>
<path d="" fill="#3F4145" transform="translate(0,0)"/>
<path d="" fill="#31393B" transform="translate(0,0)"/>
<path d="" fill="#333536" transform="translate(0,0)"/>
<path d="" fill="#474A4D" transform="translate(0,0)"/>
<path d="" fill="#424345" transform="translate(0,0)"/>
<path d="" fill="#303636" transform="translate(0,0)"/>
<path d="" fill="#313436" transform="translate(0,0)"/>
<path d="" fill="#303536" transform="translate(0,0)"/>
<path d="" fill="#3A3E3F" transform="translate(0,0)"/>
<path d="" fill="#3E4345" transform="translate(0,0)"/>
<path d="" fill="#3A4242" transform="translate(0,0)"/>
<path d="" fill="#3B4043" transform="translate(0,0)"/>
<path d="" fill="#32383B" transform="translate(0,0)"/>
<path d="" fill="#3B3E40" transform="translate(0,0)"/>
<path d="" fill="#323539" transform="translate(0,0)"/>
<path d="" fill="#3E4243" transform="translate(0,0)"/>
<path d="" fill="#3A3F42" transform="translate(0,0)"/>
<path d="" fill="#373A3C" transform="translate(0,0)"/>
<path d="" fill="#3B3F42" transform="translate(0,0)"/>
<path d="" fill="#393C3E" transform="translate(0,0)"/>
<path d="" fill="#3C4244" transform="translate(0,0)"/>
<path d="" fill="#383C40" transform="translate(0,0)"/>
<path d="" fill="#3A3E41" transform="translate(0,0)"/>
<path d="" fill="#3A3F42" transform="translate(0,0)"/>
<path d="" fill="#404244" transform="translate(0,0)"/>
<path d="" fill="#393E41" transform="translate(0,0)"/>
<path d="" fill="#3B4143" transform="translate(0,0)"/>
<path d="" fill="#43464A" transform="translate(0,0)"/>
<path d="" fill="#474C4F" transform="translate(0,0)"/>
<path d="" fill="#363C3E" transform="translate(0,0)"/>
<path d="" fill="#454B4B" transform="translate(0,0)"/>
<path d="" fill="#3C4142" transform="translate(0,0)"/>
<path d="" fill="#373E3F" transform="translate(0,0)"/>
<path d="" fill="#383C41" transform="translate(0,0)"/>
<path d="" fill="#424747" transform="translate(0,0)"/>
<path d="" fill="#444748" transform="translate(0,0)"/>
<path d="" fill="#4F5153" transform="translate(0,0)"/>
<path d="" fill="#414443" transform="translate(0,0)"/>
<path d="" fill="#43474A" transform="translate(0,0)"/>
<path d="" fill="#46484A" transform="translate(0,0)"/>
<path d="" fill="#3B4244" transform="translate(0,0)"/>
<path d="" fill="#434649" transform="translate(0,0)"/>
<path d="" fill="#424446" transform="translate(0,0)"/>
<path d="" fill="#3E4242" transform="translate(0,0)"/>
<path d="" fill="#434849" transform="translate(0,0)"/>
<path d="" fill="#373D3F" transform="translate(0,0)"/>
<path d="" fill="#393D41" transform="translate(0,0)"/>
<path d="" fill="#393C40" transform="translate(0,0)"/>
<path d="" fill="#474C4F" transform="translate(0,0)"/>
<path d="" fill="#3F4347" transform="translate(0,0)"/>
<path d="" fill="#484B51" transform="translate(0,0)"/>
<path d="" fill="#434648" transform="translate(0,0)"/>
<path d="" fill="#3B3F41" transform="translate(0,0)"/>
<path d="" fill="#404446" transform="translate(0,0)"/>
<path d="" fill="#464E4D" transform="translate(0,0)"/>
<path d="" fill="#3A3E40" transform="translate(0,0)"/>
<path d="" fill="#424546" transform="translate(0,0)"/>
<path d="" fill="#414546" transform="translate(0,0)"/>
<path d="" fill="#3D4248" transform="translate(0,0)"/>
<path d="" fill="#3E4244" transform="translate(0,0)"/>
<path d="" fill="#3D3E40" transform="translate(0,0)"/>
<path d="" fill="#3B3C41" transform="translate(0,0)"/>
<path d="" fill="#414448" transform="translate(0,0)"/>
<path d="" fill="#4B4D4F" transform="translate(0,0)"/>
<path d="" fill="#3F4345" transform="translate(0,0)"/>
<path d="" fill="#424549" transform="translate(0,0)"/>
<path d="" fill="#4A4D4D" transform="translate(0,0)"/>
<path d="" fill="#4E5254" transform="translate(0,0)"/>
<path d="" fill="#4D4F4E" transform="translate(0,0)"/>
<path d="" fill="#4C4E50" transform="translate(0,0)"/>
<path d="" fill="#434A4C" transform="translate(0,0)"/>
<path d="" fill="#3F4344" transform="translate(0,0)"/>
<path d="" fill="#404546" transform="translate(0,0)"/>
<path d="" fill="#4F5254" transform="translate(0,0)"/>
<path d="" fill="#484C4F" transform="translate(0,0)"/>
<path d="" fill="#43494C" transform="translate(0,0)"/>
<path d="" fill="#44474A" transform="translate(0,0)"/>
<path d="" fill="#4B5354" transform="translate(0,0)"/>
<path d="" fill="#44474A" transform="translate(0,0)"/>
<path d="" fill="#4B4D4F" transform="translate(0,0)"/>
<path d="" fill="#414345" transform="translate(0,0)"/>
<path d="" fill="#434749" transform="translate(0,0)"/>
<path d="" fill="#414444" transform="translate(0,0)"/>
<path d="" fill="#464A4C" transform="translate(0,0)"/>
<path d="" fill="#3E4044" transform="translate(0,0)"/>
<path d="" fill="#3C3F3F" transform="translate(0,0)"/>
<path d="" fill="#404447" transform="translate(0,0)"/>
<path d="" fill="#3E4346" transform="translate(0,0)"/>
<path d="" fill="#404345" transform="translate(0,0)"/>
<path d="" fill="#4E5356" transform="translate(0,0)"/>
<path d="" fill="#4F5053" transform="translate(0,0)"/>
<path d="" fill="#535555" transform="translate(0,0)"/>
</svg>
